<?xml version="1.0" encoding="utf-8"?>
<!-- Generator: Adobe Illustrator 16.0.0, SVG Export Plug-In . SVG Version: 6.00 Build 0)  -->
<!DOCTYPE svg PUBLIC "-//W3C//DTD SVG 1.1//EN" "http://www.w3.org/Graphics/SVG/1.1/DTD/svg11.dtd">
<svg version="1.1" id="Layer_1" xmlns="http://www.w3.org/2000/svg" xmlns:xlink="http://www.w3.org/1999/xlink" x="0px" y="0px"
	 width="177px" height="28px" viewBox="-32 0 177 28" enable-background="new -32 0 177 28" xml:space="preserve">
<g>
	<path fill="#FFFFFF" d="M-18.66,8.321c-0.385-1.154-0.849-1.99-1.392-2.511c-0.542-0.52-1.221-0.78-2.036-0.78
		c-0.837,0-1.476,0.237-1.917,0.712c-0.441,0.475-0.662,1.131-0.662,1.968c0,0.611,0.26,1.148,0.781,1.612
		c0.52,0.464,1.165,0.911,1.934,1.34c0.769,0.43,1.606,0.888,2.511,1.374c0.905,0.487,1.742,1.058,2.511,1.713
		c0.769,0.657,1.413,1.437,1.934,2.341c0.52,0.905,0.78,1.991,0.78,3.258c0,1.063-0.175,2.024-0.526,2.884
		c-0.351,0.86-0.86,1.595-1.527,2.206c-0.667,0.61-1.488,1.08-2.46,1.408c-0.973,0.327-2.07,0.491-3.292,0.491
		c-1.923,0-3.58-0.542-4.971-1.628s-2.404-2.839-3.037-5.26l4.615-0.984c0.136,0.747,0.333,1.375,0.594,1.884
		c0.26,0.509,0.56,0.922,0.899,1.238c0.339,0.317,0.696,0.543,1.069,0.679c0.374,0.136,0.729,0.203,1.069,0.203
		c0.814,0,1.499-0.254,2.053-0.763c0.554-0.51,0.831-1.228,0.831-2.155c0-0.769-0.26-1.43-0.78-1.984
		c-0.521-0.555-1.166-1.069-1.934-1.544c-0.77-0.476-1.606-0.944-2.511-1.408s-1.742-0.996-2.511-1.595
		c-0.77-0.599-1.414-1.294-1.934-2.086c-0.521-0.792-0.78-1.765-0.78-2.918c0-2.126,0.616-3.8,1.849-5.022
		c1.232-1.221,3.071-1.832,5.514-1.832c1.041,0,1.979,0.147,2.816,0.441c0.837,0.294,1.572,0.708,2.206,1.239
		c0.633,0.532,1.159,1.159,1.578,1.883c0.418,0.724,0.729,1.516,0.933,2.375L-18.66,8.321z"/>
	<path fill="#FFFFFF" d="M-9.872,25.999V1.5h4.683v9.772h6.617V1.5H6.11v24.499H1.427V15.412h-6.617v10.587H-9.872z"/>
	<path fill="#FFFFFF" d="M10.86,25.999V1.5h6.549l4.242,16.083h0.068L25.959,1.5h6.549v24.499h-4.004V6.726h-0.068l-4.988,19.273
		H19.92L14.932,6.726h-0.068v19.273H10.86z"/>
	<path fill="#FFFFFF" d="M35.324,25.999L41.398,1.5h6.006l5.904,24.499h-4.479l-1.188-5.157h-6.481l-1.323,5.157H35.324z
		 M42.009,16.702h4.649l-2.273-9.908h-0.068L42.009,16.702z"/>
	<path fill="#FFFFFF" d="M66.847,25.999l-4.072-9.976h-2.24v9.976h-4.682V1.5h6.786c2.828,0,4.92,0.639,6.277,1.917
		c1.357,1.278,2.036,3.083,2.036,5.412c0,1.539-0.288,2.839-0.865,3.902c-0.577,1.063-1.521,1.844-2.833,2.341l4.615,10.926H66.847z
		 M60.536,12.155h2.409c1.041,0,1.854-0.266,2.443-0.797c0.588-0.531,0.882-1.396,0.882-2.596c0-1.199-0.294-2.064-0.882-2.596
		c-0.589-0.531-1.403-0.797-2.443-0.797h-2.409V12.155z"/>
	<path fill="#FFFFFF" d="M73.124,1.5h4.615l4.309,17.508h0.068L86.392,1.5h4.581l-6.244,24.499h-5.327L73.124,1.5z"/>
	<path fill="#FFFFFF" d="M93.585,25.999V1.5h12.826v4.14h-8.144v5.632h6.21v4.14h-6.21v6.447h8.483v4.14H93.585z"/>
	<path fill="#FFFFFF" d="M120.9,8.321c-0.385-1.154-0.849-1.99-1.392-2.511c-0.543-0.52-1.222-0.78-2.036-0.78
		c-0.837,0-1.476,0.237-1.917,0.712c-0.44,0.475-0.661,1.131-0.661,1.968c0,0.611,0.26,1.148,0.78,1.612
		c0.52,0.464,1.165,0.911,1.934,1.34c0.77,0.43,1.606,0.888,2.512,1.374c0.904,0.487,1.741,1.058,2.511,1.713
		c0.769,0.657,1.413,1.437,1.934,2.341c0.521,0.905,0.78,1.991,0.78,3.258c0,1.063-0.175,2.024-0.525,2.884
		c-0.351,0.86-0.86,1.595-1.527,2.206c-0.667,0.61-1.487,1.08-2.46,1.408c-0.973,0.327-2.069,0.491-3.291,0.491
		c-1.923,0-3.58-0.542-4.971-1.628c-1.392-1.086-2.404-2.839-3.037-5.26l4.614-0.984c0.136,0.747,0.334,1.375,0.594,1.884
		s0.561,0.922,0.899,1.238c0.34,0.317,0.695,0.543,1.069,0.679c0.373,0.136,0.729,0.203,1.068,0.203
		c0.814,0,1.498-0.254,2.053-0.763c0.555-0.51,0.832-1.228,0.832-2.155c0-0.769-0.261-1.43-0.781-1.984s-1.165-1.069-1.934-1.544
		c-0.77-0.476-1.606-0.944-2.511-1.408c-0.905-0.464-1.742-0.996-2.512-1.595c-0.769-0.599-1.413-1.294-1.934-2.086
		s-0.78-1.765-0.78-2.918c0-2.126,0.616-3.8,1.849-5.022c1.233-1.221,3.071-1.832,5.515-1.832c1.04,0,1.979,0.147,2.816,0.441
		c0.836,0.294,1.571,0.708,2.205,1.239c0.633,0.532,1.159,1.159,1.578,1.883c0.418,0.724,0.729,1.516,0.933,2.375L120.9,8.321z"/>
	<path fill="#FFFFFF" d="M143.601,1.5v4.14h-5.463v20.359h-4.683V5.64h-5.463V1.5H143.601z"/>
</g>
</svg>
