<?xml version="1.0" standalone="no"?>
<!DOCTYPE svg PUBLIC "-//W3C//DTD SVG 1.1//EN" "http://www.w3.org/Graphics/SVG/1.1/DTD/svg11.dtd" >
<svg xmlns="http://www.w3.org/2000/svg" xmlns:xlink="http://www.w3.org/1999/xlink" version="1.1">
<metadata></metadata>
<defs>
<font id="webfontregular" horiz-adv-x="1024" >
<font-face units-per-em="2048" ascent="1577" descent="-471" />
<missing-glyph horiz-adv-x="624" />
<glyph horiz-adv-x="0" />
<glyph unicode="&#xd;" horiz-adv-x="0" />
<glyph unicode=" "  horiz-adv-x="624" />
<glyph unicode="&#x09;" horiz-adv-x="624" />
<glyph unicode="&#xa0;" horiz-adv-x="624" />
<glyph unicode="!" horiz-adv-x="681" d="M240 0l47 225h200l-47 -225h-200zM375 467l176 1012h217l-262 -1012h-131z" />
<glyph unicode="&#x22;" horiz-adv-x="681" d="M354 926l121 553h127l-121 -553h-127zM598 926l121 553h127l-121 -553h-127z" />
<glyph unicode="#" horiz-adv-x="1251" d="M225 471l25 115h219l109 311h-203l24 115h219l166 467h127l-166 -467h279l164 467h127l-164 -467h192l-24 -115h-209l-111 -311h195l-25 -115h-211l-163 -471h-127l163 471h-276l-164 -471h-127l164 471h-203zM596 586h276l111 311h-278z" />
<glyph unicode="$" horiz-adv-x="1251" d="M170 268l137 90q16 -37 44 -75.5t64 -72.5t80 -57.5t95 -25.5l123 571q-47 12 -105.5 34t-108.5 60.5t-85 94t-35 135.5q0 41 8 80q20 94 71.5 165.5t119 118t147.5 70t158 23.5l32 157h140l-33 -157q61 -4 113.5 -28t93.5 -57.5t70.5 -74.5t48.5 -82l-125 -86 q-29 74 -89.5 129t-140.5 72l-114 -535q170 -59 261 -134t91 -202q0 -23 -3 -45t-7 -47q-18 -86 -69.5 -157.5t-122.5 -123t-154.5 -80t-172.5 -28.5l-55 -254h-139l55 254q-74 2 -134 26.5t-108.5 63.5t-85 86t-65.5 92zM532 1061q0 -49 18.5 -84t48.5 -59.5t69 -40 t80 -23.5l106 498h-10q-119 0 -202 -62.5t-101 -163.5q-8 -33 -9 -65zM729 127q55 2 111.5 21.5t103.5 51t80 77t45 100.5q6 31 6 59q0 51 -20.5 87t-53 61.5t-73.5 43t-84 31.5z" />
<glyph unicode="%" horiz-adv-x="1820" d="M360 1063q0 41 9 76q14 72 55 134t97.5 108t124 72t138.5 26q125 0 201 -75t76 -192q0 -39 -8 -73q-16 -72 -56.5 -134.5t-96.5 -108.5t-123.5 -71.5t-139.5 -25.5q-61 0 -112.5 19.5t-87.5 55t-56.5 84t-20.5 105.5zM418 -20l1179 1519h121l-1179 -1519h-121zM489 1087 q0 -74 48.5 -117.5t126.5 -43.5q92 0 165.5 58t96.5 155q6 25 6 49q0 76 -49 120t-127 44q-92 0 -166 -58.5t-94 -154.5q-6 -29 -7 -52zM1077 266q0 16 2 36t6 38q16 72 56.5 134.5t96.5 108.5t124 71.5t139 25.5q61 0 112.5 -19.5t87.5 -55.5t56.5 -84t20.5 -105 q0 -41 -9 -76q-16 -72 -55 -134.5t-95 -108.5t-123.5 -71.5t-139.5 -25.5q-125 0 -202 75t-77 191zM1206 291q0 -76 49 -120t127 -44q92 0 166 58.5t94 154.5q6 27 7 51q0 74 -48.5 118t-125.5 44q-92 0 -166 -58.5t-97 -154.5q-6 -25 -6 -49z" />
<glyph unicode="&#x26;" horiz-adv-x="1366" d="M166 311q0 23 3 45.5t7 46.5q16 76 58 141.5t100.5 121t126 101.5t133.5 83q-23 47 -36 113.5t-13 136.5q0 29 2 54.5t8 49.5q14 63 49 116.5t86 93.5t116.5 62.5t143.5 22.5q111 0 181.5 -53t70.5 -156q0 -35 -8 -65q-14 -66 -56 -123.5t-99.5 -107.5t-122 -94 t-121.5 -81q45 -133 111.5 -246.5t125.5 -199.5q23 23 50.5 61.5t56 87.5t56.5 106.5t50 116.5l129 -32q-23 -57 -53.5 -119t-65 -120t-71.5 -110.5t-72 -91.5q18 -25 47 -48t59.5 -39.5t60.5 -27t50 -10.5l-31 -147h-53q-29 0 -62.5 11.5t-69.5 31.5t-69.5 47t-58.5 57 q-92 -80 -202.5 -123.5t-256.5 -43.5q-76 0 -141.5 22.5t-114.5 65.5t-76.5 104t-27.5 139zM330 330q0 -53 21.5 -93t56 -67t78.5 -39t92 -12q98 0 179 34.5t146 88.5q-78 117 -145.5 241.5t-120.5 253.5q-51 -29 -98 -61.5t-87 -72.5t-70 -91t-44 -119q-4 -16 -6 -31.5 t-2 -31.5zM711 1130q0 -57 12 -109t22 -87q43 25 90.5 57.5t87.5 69.5t68.5 78t38.5 84q2 10 3 17t1 15q0 55 -34.5 86t-84.5 31q-41 0 -74.5 -15.5t-58 -40t-42 -56t-23.5 -62.5q-6 -35 -6 -68z" />
<glyph unicode="'" horiz-adv-x="454" d="M362 926l121 553h127l-121 -553h-127z" />
<glyph unicode="(" horiz-adv-x="681" d="M246 377q0 145 33 291q49 227 165.5 438t294.5 393h160q-94 -98 -170 -195.5t-135 -200t-101 -213t-69 -233.5q-16 -70 -22.5 -135t-6.5 -129q0 -154 37 -292t103 -273h-152q-137 252 -137 549z" />
<glyph unicode=")" horiz-adv-x="681" d="M68 -172q94 98 169.5 195.5t135 200t101.5 213t69 233.5q16 70 22 135t6 129q0 154 -36.5 292t-102.5 273h152q137 -252 137 -549q0 -145 -33 -291q-49 -227 -165.5 -438t-295.5 -393h-159z" />
<glyph unicode="*" d="M401 1161l66 133l252 -133l14 8l23 310h137l-102 -305l10 -13l301 142l22 -138l-319 -63l-10 -17l170 -217l-129 -86l-91 275h-16l-207 -271l-90 80l264 234l-2 14z" />
<glyph unicode="+" horiz-adv-x="1228" d="M182 469l27 127h469l102 469h127l-102 -469h469l-27 -127h-469l-100 -469h-127l100 469h-469z" />
<glyph unicode="," horiz-adv-x="624" d="M129 -303l164 303h-82l47 225h201l-47 -225l-197 -303h-86z" />
<glyph unicode="-" horiz-adv-x="681" d="M182 469l27 127h516l-27 -127h-516z" />
<glyph unicode="." horiz-adv-x="624" d="M211 0l47 225h201l-47 -225h-201z" />
<glyph unicode="/" horiz-adv-x="569" d="M-20 -20l804 1519h125l-809 -1519h-120z" />
<glyph unicode="0" horiz-adv-x="1251" d="M223 422q0 68 9.5 146.5t29.5 170.5q43 201 110.5 344.5t154.5 235.5t193.5 136t227.5 44q188 0 293 -106.5t105 -339.5q0 -137 -39 -314q-43 -201 -112 -344t-156 -235t-193.5 -136t-227.5 -44q-186 0 -290.5 105t-104.5 337zM379 432q0 -172 68.5 -249t199.5 -77 q180 0 305 148.5t199 484.5q39 176 39 308q0 172 -68.5 248.5t-199.5 76.5q-180 0 -306 -148.5t-198 -484.5q-39 -176 -39 -307z" />
<glyph unicode="1" horiz-adv-x="1251" d="M317 0l27 127h256l260 1202l-291 -29l21 97q82 23 167 47t140 55h147l-296 -1372h251l-26 -127h-656z" />
<glyph unicode="2" horiz-adv-x="1251" d="M135 0l33 156q92 129 196.5 222t210 164.5t205 131t181 121t139 134t80.5 173.5q8 35 8 72q0 96 -63.5 147t-184.5 51q-80 0 -147.5 -29.5t-121 -75.5t-91 -103.5t-58.5 -112.5l-139 32q35 76 84 151t119.5 134t166 95t218.5 36q80 0 147.5 -19.5t118.5 -58.5t80 -95 t29 -130q0 -39 -11 -90q-25 -113 -92 -201t-159.5 -162.5t-201 -142.5t-213 -139.5t-197.5 -152.5t-155 -181h805l-26 -127h-961z" />
<glyph unicode="3" horiz-adv-x="1251" d="M127 270l137 82q59 -115 147.5 -180.5t204.5 -65.5q164 0 272.5 77t137.5 210q4 25 7 46.5t3 43.5q0 117 -84 179.5t-272 62.5h-145l28 127h88q221 0 336 69.5t146 206.5q6 27 6 52q0 90 -64.5 141t-159.5 51q-68 0 -121 -14.5t-100 -41t-90 -64.5t-90 -85l-102 82 q96 104 224 177t306 73q170 0 263 -71.5t93 -204.5q0 -23 -2 -45.5t-8 -47.5q-14 -68 -46 -121t-73 -92.5t-88 -68.5t-94 -45q123 -53 167 -131t44 -162q0 -27 -4 -51.5t-8 -48.5q-20 -94 -72.5 -173t-131.5 -136.5t-178 -89t-216 -31.5q-106 0 -185 29.5t-134.5 72.5 t-90.5 94t-51 94z" />
<glyph unicode="4" horiz-adv-x="1251" d="M152 348l28 127l828 1004h217l-217 -1004h254l-29 -127h-254l-74 -348h-147l73 348h-679zM336 475h524l182 848h-6z" />
<glyph unicode="5" horiz-adv-x="1251" d="M203 262l149 70q31 -100 103.5 -163t189.5 -63q74 0 142.5 23t127 70t101.5 121.5t65 179.5q12 55 13 106q0 121 -66.5 193.5t-196.5 72.5q-109 0 -200.5 -59t-159.5 -164l-123 29l240 801h758l-29 -127h-635l-139 -473q88 66 170 93t159 27q80 0 149 -22.5t120 -68.5 t80.5 -114.5t29.5 -160.5q0 -31 -3 -64.5t-11 -68.5q-18 -84 -64.5 -176.5t-124 -169t-186 -125.5t-250.5 -49q-94 0 -161.5 23.5t-114.5 63t-79 91t-54 104.5z" />
<glyph unicode="6" horiz-adv-x="1251" d="M233 399q0 119 33 265q37 174 108.5 326.5t173 266t228.5 178t277 64.5q121 0 197.5 -27.5t103.5 -58.5l-90 -125q-43 41 -95.5 62.5t-138.5 21.5q-88 0 -177 -37t-169 -112.5t-143.5 -192.5t-100.5 -276q41 35 87 66.5t99.5 56t117 39t141.5 14.5q72 0 136 -21.5 t113.5 -65.5t78 -109.5t28.5 -153.5q0 -61 -14 -125q-27 -119 -86.5 -208t-139 -148.5t-172 -89t-184.5 -29.5t-168 22.5t-130 73.5t-84 130t-30 193zM379 403q0 -63 18.5 -117.5t54 -94t88 -62.5t122.5 -23q78 0 145 26t120.5 72t89.5 108.5t52 138.5q6 27 8 50t2 46 q0 63 -19.5 110.5t-52 80t-77.5 49t-94 16.5q-68 0 -139.5 -25.5t-134 -68.5t-109.5 -100.5t-66 -121.5q-4 -23 -6 -43t-2 -41z" />
<glyph unicode="7" horiz-adv-x="1251" d="M293 0l899 1352h-750l29 127h938l-20 -90l-924 -1389h-172z" />
<glyph unicode="8" horiz-adv-x="1251" d="M158 299q0 39 10 86q14 70 53 130t94.5 110.5t123 90.5t141.5 70v5q-94 39 -145.5 107.5t-51.5 160.5q0 39 8 71q20 90 71.5 160t125.5 116t166 69.5t194 23.5q90 0 165 -18.5t129 -54t84 -90t30 -124.5q0 -35 -10 -82q-25 -117 -113 -204.5t-223 -134.5v-5 q104 -41 173.5 -121.5t69.5 -197.5q0 -43 -8 -82q-18 -84 -67.5 -157.5t-128 -129t-187 -87t-244.5 -31.5q-119 0 -205.5 23.5t-143 66.5t-84 101t-27.5 128zM317 336q0 -43 18.5 -85t58.5 -74t102.5 -51.5t150.5 -19.5q100 0 178 25t133.5 65t88 90t43.5 99q6 25 6 49 q0 53 -26 95t-72 76t-108.5 61.5t-135.5 54.5q-74 -29 -145.5 -60.5t-130 -71.5t-99.5 -90.5t-55 -113.5q-6 -25 -7 -49zM545 1100q0 -51 26.5 -91t66.5 -71t86 -51.5t85 -32.5q63 14 127.5 41t117 62.5t89.5 82t49 99.5q6 25 6 47q0 49 -22.5 84t-61.5 57.5t-88 33.5 t-104 11q-61 0 -122 -13t-112 -42t-89 -73t-50 -105q-2 -10 -3 -19.5t-1 -19.5z" />
<glyph unicode="9" horiz-adv-x="1251" d="M215 66l92 124q41 -41 94.5 -62.5t139.5 -21.5q88 0 175 39t166 117t142 193.5t104 269.5q-41 -35 -87 -66.5t-99 -56t-116.5 -39t-139.5 -14.5q-72 0 -136.5 21.5t-113.5 64.5t-77.5 108.5t-28.5 153.5q0 63 14 127q25 119 84 208t139 148.5t172 89t185 29.5 q92 0 167.5 -22.5t130 -73.5t84 -131t29.5 -195q0 -113 -30 -262q-39 -176 -111 -327.5t-173 -265t-228 -178t-277 -64.5q-121 0 -197.5 27.5t-103.5 58.5zM489 932q0 -63 19.5 -111.5t52.5 -80t78 -48t94 -16.5q68 0 131.5 20.5t119.5 57.5t103.5 87t81.5 109q6 35 10.5 67 t4.5 60q0 139 -71 217t-204 78q-78 0 -145.5 -25.5t-120.5 -71.5t-90 -108.5t-53 -138.5q-6 -27 -8.5 -50.5t-2.5 -45.5z" />
<glyph unicode=":" horiz-adv-x="624" d="M211 0l47 225h201l-47 -225h-201zM338 594l49 225h201l-49 -225h-201z" />
<glyph unicode=";" horiz-adv-x="624" d="M129 -303l164 303h-82l47 225h201l-47 -225l-197 -303h-86zM338 594l49 225h201l-49 -225h-201z" />
<glyph unicode="&#x3c;" horiz-adv-x="1228" d="M197 475l24 115l1143 475l-27 -127l-981 -406l805 -405l-26 -127z" />
<glyph unicode="=" horiz-adv-x="1228" d="M137 260l27 127h1065l-27 -127h-1065zM227 678l29 127h1065l-29 -127h-1065z" />
<glyph unicode="&#x3e;" horiz-adv-x="1228" d="M94 0l27 127l981 405l-805 406l27 127l938 -473l-27 -119z" />
<glyph unicode="?" horiz-adv-x="909" d="M276 0l48 225h200l-47 -225h-201zM383 1274q76 111 174 168t209 57q55 0 105.5 -15.5t87 -46t58 -75.5t21.5 -102q0 -39 -8 -72q-14 -68 -50 -122t-82 -103.5t-98 -93.5t-97.5 -89t-80 -94t-47.5 -104l-24 -115h-139l24 113q16 78 51 136t80 107t94.5 90t92.5 84 t75.5 90.5t47.5 108.5q4 10 4 23v22q0 51 -31 91t-107 40q-72 0 -129 -36t-120 -122z" />
<glyph unicode="@" horiz-adv-x="1638" d="M229 571q0 78 19 162q35 162 126 302.5t217 242.5t276.5 161.5t306.5 59.5q125 0 230 -36t182 -101.5t120 -156.5t43 -204q0 -68 -14 -131q-33 -150 -103.5 -259t-158 -182t-176.5 -107.5t-158 -34.5q-55 0 -87 30.5t-32 77.5q0 4 1 9.5t1 9.5l-4 -2q-53 -47 -127 -86 t-143 -39q-111 0 -173.5 70.5t-62.5 174.5q0 18 2 38t6 40q23 102 78 202.5t132 179.5t171 128t195 49q84 0 137 -35.5t74 -121.5l67 123h137l-284 -564q-14 -29 -26.5 -54t-16.5 -46q-2 -6 -2 -16q0 -35 37 -35q57 0 117.5 39t113.5 100.5t93 137t56 151.5q14 59 15 121 q0 96 -36 170.5t-98.5 125t-148.5 77t-186 26.5q-135 0 -258 -49t-223.5 -135t-170 -202t-98.5 -249q-16 -78 -16 -143q0 -106 36 -194.5t101.5 -152t155.5 -98t200 -34.5q154 0 299.5 56t255.5 165h156q-68 -88 -154 -153.5t-182 -109.5t-199.5 -66.5t-203.5 -22.5 q-137 0 -251 45t-195 123.5t-125 187t-44 235.5zM680 555q0 -57 25.5 -91t78.5 -34q70 0 139.5 40t127 101.5t98.5 133t55 133.5q6 33 6 61q0 68 -33.5 97.5t-78.5 29.5q-74 0 -142.5 -39t-124 -97.5t-93.5 -128t-50 -130.5q-4 -20 -6 -40t-2 -36z" />
<glyph unicode="A" horiz-adv-x="1251" d="M49 0l774 1479h244l135 -1479h-172l-41 463h-530l-238 -463h-172zM530 602h449l-47 762h-23z" />
<glyph unicode="B" horiz-adv-x="1366" d="M221 0l320 1479h544q168 0 255 -82t87 -205q0 -18 -2 -37.5t-6 -40.5q-27 -123 -102.5 -208t-220.5 -132l2 -4q98 -27 155.5 -101.5t57.5 -181.5q0 -39 -11 -90q-18 -84 -60 -155.5t-116.5 -126t-184.5 -85t-259 -30.5h-297h-162zM414 139h307q182 0 285.5 63.5 t132.5 203.5q4 16 6 33.5t2 33.5q0 111 -87 171.5t-241 60.5h-282zM567 844h287q92 0 162.5 21.5t119 57t77 81t38.5 92.5q4 20 6.5 39.5t2.5 35.5q0 168 -234 168h-352z" />
<glyph unicode="C" horiz-adv-x="1251" d="M213 459q0 61 8 132t25 148q39 180 107.5 321.5t161.5 239t210 148.5t250 51q207 0 304 -112.5t101 -317.5l-159 -45q-4 78 -19.5 140.5t-49.5 105.5t-90 66.5t-138 23.5q-80 0 -158 -37t-145.5 -113.5t-123 -193.5t-87.5 -277q-31 -145 -31 -254q0 -190 83 -278t226 -88 q86 0 152.5 29.5t119 78.5t93.5 112.5t71 131.5l142 -29q-47 -102 -107.5 -187t-136.5 -146.5t-170 -95t-207 -33.5q-199 0 -315.5 117.5t-116.5 361.5z" />
<glyph unicode="D" horiz-adv-x="1366" d="M205 0l319 1479h398q250 0 392 -128t142 -382q0 -109 -26 -230q-35 -164 -108 -299t-179.5 -233t-244.5 -152.5t-304 -54.5h-225h-164zM397 139h221q256 0 419 150.5t229 449.5q24 114 24 206v7q0 205 -108.5 296t-294.5 91h-230z" />
<glyph unicode="E" horiz-adv-x="1251" d="M221 0l320 1479h886l-30 -140h-723l-107 -495h514l-30 -139h-514l-123 -566h764l-29 -139h-766h-162z" />
<glyph unicode="F" horiz-adv-x="1138" d="M205 0l319 1479h877l-31 -140h-713l-106 -495h528l-30 -139h-529l-151 -705h-164z" />
<glyph unicode="G" horiz-adv-x="1366" d="M225 465q0 125 33 274q41 195 114.5 338.5t171 236.5t213 139t242.5 46q94 0 171 -23.5t133.5 -75.5t91.5 -134t43 -201l-162 -31q-16 176 -93 251t-206 75q-82 0 -164 -31t-156.5 -102.5t-135 -190t-99.5 -297.5q-31 -145 -31 -250q0 -104 25.5 -174.5t68.5 -113.5 t100.5 -62.5t123.5 -19.5q90 0 162.5 25.5t126 70.5t88 104.5t49.5 126.5l26 125h-334l31 140h498l-154 -711h-135l29 135h-4q-74 -78 -186.5 -116.5t-235.5 -38.5q-203 0 -324 118.5t-121 366.5z" />
<glyph unicode="H" horiz-adv-x="1478" d="M221 0l320 1479h164l-138 -635h709l137 635h164l-320 -1479h-163l151 705h-708l-152 -705h-164z" />
<glyph unicode="I" horiz-adv-x="681" d="M258 0l320 1479h163l-319 -1479h-164z" />
<glyph unicode="J" horiz-adv-x="909" d="M51 170l142 80q23 -57 72.5 -94t119.5 -37q76 0 137.5 46t89.5 173l248 1141h164l-238 -1098q-47 -211 -154.5 -306t-273.5 -95q-66 0 -112.5 15t-83.5 41.5t-63.5 61.5t-47.5 72z" />
<glyph unicode="K" horiz-adv-x="1366" d="M238 0l319 1479h164l-166 -768h4l778 768h195l-580 -557l316 -922h-187l-270 786l-303 -290l-107 -496h-163z" />
<glyph unicode="L" horiz-adv-x="1138" d="M221 0l320 1479h164l-291 -1340h700l-29 -139h-864z" />
<glyph unicode="M" horiz-adv-x="1705" d="M221 0l320 1479h254l116 -1196h4l631 1196h258l-319 -1479h-148l291 1352h-6l-704 -1352h-127l-125 1352h-7l-290 -1352h-148z" />
<glyph unicode="N" horiz-adv-x="1478" d="M221 0l320 1479h235l398 -1139h8l248 1139h147l-320 -1479h-135l-465 1319h-4l-284 -1319h-148z" />
<glyph unicode="O" horiz-adv-x="1366" d="M231 461q0 61 8.5 130.5t24.5 147.5q80 371 274.5 565.5t467.5 194.5q217 0 331.5 -123t114.5 -360q0 -127 -33 -277q-82 -373 -275.5 -566t-467.5 -193q-217 0 -331 122.5t-114 358.5zM395 479q0 -184 81 -272t231 -88q197 0 338 151.5t210 468.5q31 143 31 256 q0 186 -80 275.5t-231 89.5q-195 0 -337 -153t-210 -468q-16 -74 -24.5 -139t-8.5 -121z" />
<glyph unicode="P" horiz-adv-x="1251" d="M205 0l319 1479h516q199 0 287 -85t88 -218q0 -53 -12 -111q-41 -184 -196.5 -295t-434.5 -111h-262l-141 -659h-164zM541 799h278q102 0 175 17.5t123 51t79 85t43 116.5q4 20 6 39.5t2 38.5q0 192 -271 192h-3h-316z" />
<glyph unicode="Q" horiz-adv-x="1366" d="M231 461q0 61 8.5 131t24.5 147q80 371 274.5 565.5t467.5 194.5q217 0 331.5 -123t114.5 -360q0 -127 -33 -277q-80 -369 -274 -563q23 -72 70 -103.5t124 -31.5l-34 -160q-70 0 -116 12.5t-77 37t-52.5 60.5t-39.5 85q-152 -96 -344 -96q-217 0 -331 122.5t-114 358.5z M395 479q0 -184 81 -272t231 -88q143 0 258 82q-25 55 -59 82.5t-97 38.5l35 157q98 -14 153.5 -47t89.5 -104q109 145 168 411q31 143 31 256q0 186 -80 275.5t-231 89.5q-195 0 -337 -152.5t-210 -468.5q-16 -74 -24.5 -139t-8.5 -121z" />
<glyph unicode="R" horiz-adv-x="1366" d="M205 0l319 1479h475q209 0 314.5 -77t105.5 -218q0 -23 -2 -46.5t-8 -47.5q-35 -158 -136.5 -250t-242.5 -135l162 -705h-178l-156 672h-346l-143 -672h-164zM543 811h297q170 0 271 64.5t132 205.5q8 35 8 72q0 106 -80.5 146t-218.5 40h-295z" />
<glyph unicode="S" horiz-adv-x="1251" d="M180 365l162 53q8 -59 29.5 -112.5t59.5 -95.5t94.5 -66.5t138.5 -24.5q164 0 261 75.5t122 190.5q6 25 6 49q0 76 -51.5 125t-127 86t-164.5 70t-165 76t-127 102t-51 151q0 39 8 74q16 80 63 149.5t117 121t158 81t188 29.5q174 0 281.5 -90t126.5 -274l-154 -33 q-2 53 -20.5 100t-54.5 82t-89 55.5t-125 20.5q-129 0 -214 -59.5t-111 -170.5q-2 -10 -3 -19t-1 -19q0 -66 51 -110t127 -80t166 -69.5t165.5 -78.5t127 -107.5t51.5 -157.5q0 -41 -8 -75q-18 -80 -59.5 -158t-113 -139.5t-175 -99t-244.5 -37.5q-121 0 -201 35.5t-129 91 t-74.5 124t-40.5 134.5z" />
<glyph unicode="T" horiz-adv-x="1138" d="M334 1339l31 140h1048l-31 -140h-442l-289 -1339h-164l289 1339h-442z" />
<glyph unicode="U" horiz-adv-x="1478" d="M305 332q0 53 12 114l224 1033h164l-228 -1045q-8 -33 -8 -72q0 -104 72.5 -173.5t222.5 -69.5q86 0 157.5 24.5t126 67.5t89 100.5t49.5 122.5l227 1045h164l-223 -1033q-25 -111 -81 -197.5t-138 -146t-184.5 -91t-217.5 -31.5q-199 0 -313.5 92t-114.5 260z" />
<glyph unicode="V" horiz-adv-x="1138" d="M356 1479h164l103 -1213h4l628 1213h166l-778 -1479h-149z" />
<glyph unicode="W" horiz-adv-x="1705" d="M377 1479h155l19 -1180h4l543 1180h145l39 -1180h4l526 1180h156l-670 -1479h-145l-45 1196h-4l-545 -1196h-145z" />
<glyph unicode="X" horiz-adv-x="1138" d="M29 0l608 772l-260 707h188l199 -543l430 543h188l-557 -707l285 -772h-188l-226 610l-479 -610h-188z" />
<glyph unicode="Y" horiz-adv-x="1138" d="M352 1479h180l209 -678l504 678h180l-641 -856l-133 -623h-164l134 623z" />
<glyph unicode="Z" horiz-adv-x="1138" d="M92 0l25 119l1005 1220h-673l30 140h879l-23 -107l-1022 -1233h762l-28 -139h-955z" />
<glyph unicode="[" horiz-adv-x="681" d="M121 -152l354 1631h418l-19 -86h-270l-315 -1459h270l-20 -86h-273h-145z" />
<glyph unicode="\" horiz-adv-x="569" d="M307 1499h125l148 -1519h-123z" />
<glyph unicode="]" horiz-adv-x="681" d="M74 -152l20 86h271l315 1459h-270l18 86h418l-354 -1631h-148h-270z" />
<glyph unicode="^" horiz-adv-x="1228" d="M219 571l655 908h119l262 -908h-129l-225 768l-551 -768h-131z" />
<glyph unicode="_" d="M-55 -256l22 102h1022l-22 -102h-1022z" />
<glyph unicode="`" horiz-adv-x="569" d="M332 1479h223l119 -291h-137z" />
<glyph unicode="a" d="M135 199q0 39 8 73q18 88 68.5 155t139.5 119t221.5 91t316.5 70l12 57q6 31 6 55q0 76 -50 107.5t-132 31.5q-61 0 -111.5 -15t-88.5 -39.5t-65.5 -54.5t-43.5 -56l-115 67q72 92 184.5 158.5t264.5 66.5q59 0 114.5 -13t98.5 -42t69.5 -74t26.5 -110q0 -33 -10 -80 l-115 -537q-16 -66 -21.5 -109.5t-5.5 -78.5q0 -10 1 -20.5t1 -20.5h-151l14 147q-70 -61 -169 -114t-220 -53q-106 0 -177 54t-71 165zM287 240q0 -61 45 -97.5t100 -36.5q39 0 86 13.5t96.5 38t95.5 56.5t87 69l63 292q-520 -88 -569 -305q-4 -20 -4 -30z" />
<glyph unicode="b" horiz-adv-x="1138" d="M172 0q23 59 34 116.5t23 116.5l271 1246h147l-112 -516l10 4q72 51 150.5 84.5t154.5 33.5q57 0 115.5 -19t105.5 -64.5t78 -117t31 -175.5q0 -82 -21 -177q-35 -160 -99.5 -266t-143 -169.5t-161.5 -90t-153 -26.5q-96 0 -160.5 36.5t-117.5 96.5l-50 -113h-102z M381 250q61 -78 113.5 -111t123.5 -33q139 0 243 106.5t149 311.5q10 53 16 96.5t6 81.5q0 70 -16.5 119t-47 80t-72.5 44t-93 13q-66 0 -145.5 -40.5t-155.5 -106.5z" />
<glyph unicode="c" d="M174 348q0 78 23 184q27 129 80 231.5t124.5 174.5t160.5 109.5t190 37.5q82 0 139 -21.5t95 -60t59.5 -92t33.5 -114.5l-147 -49q-10 98 -60.5 154t-146.5 56q-137 0 -237.5 -110.5t-143.5 -315.5q-20 -88 -20 -165q0 -125 55 -193t162 -68q51 0 93 9.5t82 32t79 60.5 t82 95l106 -53q-55 -68 -105.5 -119t-105.5 -85t-117.5 -50t-142.5 -16q-162 0 -250 96t-88 272z" />
<glyph unicode="d" horiz-adv-x="1138" d="M186 348q0 76 23 184q33 156 97.5 261.5t141 170t158.5 93t150 28.5q76 0 140.5 -33.5t115.5 -84.5l6 -4l112 516h148l-270 -1246q-12 -59 -24.5 -116.5t-16.5 -116.5h-136l3 104q-49 -51 -131 -87.5t-179 -36.5q-59 0 -119.5 18t-108.5 61t-79 114t-31 175zM336 369 q0 -129 59.5 -196t169.5 -67q35 0 69 8.5t68.5 26t74.5 44t87 65.5l121 561q-45 66 -107.5 106.5t-127.5 40.5q-66 0 -125.5 -22.5t-110.5 -73.5t-92 -134t-68 -204q-18 -86 -18 -155z" />
<glyph unicode="e" d="M176 358q0 84 21 174q27 129 80 231.5t125.5 174.5t160.5 109.5t187 37.5q68 0 126 -18t101 -58t67.5 -100.5t24.5 -146.5q0 -72 -18 -160l-21 -98h-692q-12 -61 -12 -115q0 -129 65.5 -206t175.5 -77q98 0 183.5 48.5t150.5 132.5l103 -60q-37 -45 -80 -89t-98.5 -79.5 t-126 -57t-160.5 -21.5q-74 0 -140.5 22.5t-116 68.5t-78 117.5t-28.5 169.5zM369 631h540q12 57 13 110q0 100 -49.5 158.5t-145.5 58.5q-135 0 -226 -90t-132 -237z" />
<glyph unicode="f" horiz-adv-x="681" d="M236 0l202 938h-180l27 127h180l27 121q20 94 48.5 154.5t68.5 96.5t92.5 49t117.5 13q33 0 64.5 -3t64.5 -7l-28 -131q-27 4 -52.5 9t-50.5 5q-76 0 -113.5 -30.5t-58.5 -120.5l-33 -156h232l-27 -127h-231l-203 -938h-147z" />
<glyph unicode="g" d="M4 -186q0 23 6 51q16 80 73.5 126t154.5 91q-49 16 -76 50t-27 75v12q0 8 2 14q16 70 64.5 107t117.5 76q-47 41 -68.5 95t-21.5 114q0 23 3.5 44t7.5 44q18 84 64 152.5t110.5 117.5t143.5 75.5t165 26.5t145.5 -18t102.5 -55q55 35 122.5 61.5t127.5 32.5l-31 -148 q-47 0 -93 -7t-77 -21q12 -20 23.5 -57t11.5 -87q0 -39 -8 -73q-16 -80 -62.5 -147.5t-110 -118t-141.5 -79t-158 -28.5q-66 0 -103.5 8t-78.5 21q-88 -25 -104 -99q-2 -6 -2 -18q0 -29 19.5 -44t53.5 -15q168 0 284 -13.5t187.5 -42t104.5 -71.5t33 -105q0 -35 -8 -67 q-12 -59 -52.5 -110.5t-109 -91.5t-164.5 -62.5t-221 -22.5q-203 0 -306.5 50t-103.5 157zM145 -162q0 -25 13.5 -43t49.5 -32.5t98.5 -21.5t158.5 -7q66 0 126 9t108.5 28.5t80 48t41.5 67.5q2 6 2 15v12q0 66 -78.5 98.5t-259.5 32.5q-86 0 -147.5 -17.5t-101 -43t-60 -57 t-26.5 -60.5q-4 -20 -5 -29zM373 659q0 -86 60.5 -139t166.5 -53q63 0 114.5 19.5t90.5 52t64.5 76t35.5 90.5q8 33 8 71q0 86 -54 134t-169 48q-127 0 -208 -70.5t-103 -174.5q-6 -29 -6 -54z" />
<glyph unicode="h" horiz-adv-x="1138" d="M182 0l320 1479h147l-121 -557h4q78 72 168.5 117.5t182.5 45.5q51 0 96 -12t79 -37.5t54.5 -67.5t20.5 -102q0 -23 -2.5 -44t-8.5 -48l-166 -774h-147l166 770q8 35 8 68q0 66 -38 93t-103 27q-41 0 -88 -15t-93.5 -38.5t-87.5 -52.5t-71 -55l-172 -797h-148z" />
<glyph unicode="i" horiz-adv-x="569" d="M211 0l229 1065h148l-230 -1065h-147zM496 1323l39 176h147l-39 -176h-147z" />
<glyph unicode="j" horiz-adv-x="569" d="M-33 -369l25 121q14 -8 31.5 -13t39.5 -5q63 0 95 23.5t47 82.5l264 1225h147l-266 -1235q-23 -98 -94.5 -160.5t-173.5 -62.5q-78 0 -115 24zM524 1323l39 176h148l-39 -176h-148z" />
<glyph unicode="k" d="M172 0l320 1479h147l-207 -953h4l547 539h178l-399 -393l211 -672h-174l-166 545l-246 -226l-68 -319h-147z" />
<glyph unicode="l" horiz-adv-x="569" d="M211 0l319 1479h148l-320 -1479h-147z" />
<glyph unicode="m" horiz-adv-x="1705" d="M168 0l229 1065h148l-31 -141l10 8q86 76 175 114.5t167 38.5q104 0 164 -47t72 -120q88 76 184 121.5t191 45.5q45 0 87 -9t74.5 -33.5t53 -65.5t20.5 -105q0 -49 -12 -110l-164 -762h-147l163 762q8 35 9 69q0 70 -36 98.5t-95 28.5q-49 0 -93.5 -14t-86.5 -37.5 t-79.5 -53.5t-74.5 -58l-170 -795h-148l164 762q8 35 8 69q0 70 -35.5 98.5t-95.5 28.5q-49 0 -93 -14t-86 -37.5t-80 -53.5t-75 -58l-170 -795h-147z" />
<glyph unicode="n" horiz-adv-x="1138" d="M182 0l230 1065h147l-31 -143h4q78 72 168.5 117.5t182.5 45.5q51 0 96 -12t79 -37.5t54.5 -67.5t20.5 -102q0 -23 -2.5 -44t-8.5 -48l-166 -774h-147l166 770q8 35 8 68q0 66 -38 93t-103 27q-41 0 -88 -15t-93.5 -38.5t-87.5 -52.5t-71 -55l-172 -797h-148z" />
<glyph unicode="o" d="M170 352q0 90 20 180q25 115 74 216.5t120 176t162 117.5t199 43q86 0 151 -27.5t105.5 -77.5t61 -118.5t20.5 -150.5q0 -41 -5 -86.5t-15 -92.5q-25 -115 -75 -216t-120.5 -175.5t-162 -117.5t-199.5 -43q-86 0 -149.5 27.5t-105.5 76.5t-61.5 117.5t-19.5 150.5z M319 369q0 -129 55.5 -196t160.5 -67q133 0 234 109.5t146 316.5q18 92 19 164q0 129 -55.5 195.5t-159.5 66.5q-133 0 -234.5 -109.5t-146.5 -316.5q-18 -92 -19 -163z" />
<glyph unicode="p" horiz-adv-x="1138" d="M94 -393l316 1458h147l-27 -125h5q27 31 63.5 56.5t78.5 46t84 31.5t81 11q59 0 119.5 -18t109.5 -61t80 -114t31 -175q0 -76 -23 -185q-35 -156 -99.5 -261t-141 -169.5t-158.5 -93t-150 -28.5q-76 0 -139 33.5t-115 84.5l-8 4l-106 -495h-148zM381 254 q47 -66 109.5 -107t127.5 -41q63 0 124 23t112 74t92 134t68 204q18 86 18 153q0 129 -59.5 196.5t-169.5 67.5q-72 0 -138.5 -32.5t-160.5 -110.5z" />
<glyph unicode="q" horiz-adv-x="1138" d="M188 352q0 84 21 180q35 160 99.5 266.5t142 170t159.5 90t154 26.5q96 0 158.5 -36.5t95.5 -96.5l51 113h119l-316 -1458h-147l106 495l-8 -4q-72 -51 -151.5 -84.5t-155.5 -33.5q-57 0 -115.5 19t-105.5 63t-77 115t-30 175zM336 362q0 -139 63.5 -197.5t165.5 -58.5 q66 0 146 41t153 107l123 561q-63 78 -114.5 110.5t-122.5 32.5q-139 0 -244 -106.5t-148 -310.5q-10 -53 -16 -96.5t-6 -82.5z" />
<glyph unicode="r" horiz-adv-x="681" d="M143 0l230 1065h147l-45 -211h4q43 55 85 97t89 71t101.5 44t119.5 15l-32 -147q-139 -4 -237.5 -91t-186.5 -253l-127 -590h-148z" />
<glyph unicode="s" horiz-adv-x="909" d="M88 182l135 88q35 -76 102.5 -120t168.5 -44q121 0 186 54.5t80 122.5q2 10 3 17t1 15q0 53 -39 84t-96.5 53.5t-125 41t-124.5 47t-96 71.5t-39 115q0 16 3 33.5t7 38.5q35 137 144.5 211.5t263.5 74.5h6q104 -2 196 -53t129 -133l-123 -90q-45 76 -100 112.5t-141 36.5 q-94 0 -152.5 -43t-75.5 -114q-2 -8 -2 -25q0 -47 38 -74.5t96.5 -48t125 -41t125 -51.5t96.5 -78t38 -123q0 -16 -2.5 -33.5t-6.5 -35.5q-16 -78 -60 -136.5t-104.5 -97.5t-132 -58t-143.5 -19q-125 0 -226.5 52t-154.5 150z" />
<glyph unicode="t" horiz-adv-x="681" d="M238 96q0 25 6 60l170 782h-174l26 127h174l76 350h148l-76 -350h246l-27 -127h-246l-164 -758q-2 -6 -2 -18q0 -55 107 -56q37 0 69.5 3t63.5 8l-27 -121q-23 -6 -66.5 -11t-109.5 -5q-100 0 -147 25.5t-47 90.5z" />
<glyph unicode="u" horiz-adv-x="1138" d="M233 201q0 20 3.5 42.5t7.5 47.5l168 774h147l-166 -770q-8 -35 -8 -68q0 -66 38 -93.5t103 -27.5q41 0 88.5 15.5t92.5 39t87 52.5t72 55l172 797h148l-230 -1065h-147l31 143h-4q-78 -72 -169.5 -117.5t-183.5 -45.5q-51 0 -96 12t-79 38.5t-54.5 68.5t-20.5 102z" />
<glyph unicode="v" horiz-adv-x="909" d="M262 1065h150l80 -881h4l460 881h150l-549 -1065h-197z" />
<glyph unicode="w" horiz-adv-x="1366" d="M262 1065h150l37 -819h4l387 819h149l35 -823h4l385 823h150l-514 -1065h-150l-35 823h-4l-389 -823h-149z" />
<glyph unicode="x" horiz-adv-x="909" d="M25 0l456 559l-202 506h165l152 -379l305 379h166l-408 -506l226 -559h-170l-172 436l-353 -436h-165z" />
<glyph unicode="y" horiz-adv-x="909" d="M-45 -381l27 121q14 -2 32.5 -4t42.5 -2q33 0 76 7t87 32.5t89 76t82 138.5l-137 1077h156l110 -813h4l426 813h156l-582 -1081l-43 -78q-49 -90 -102 -147.5t-106.5 -91.5t-108.5 -47t-107 -13q-37 0 -58.5 4t-43.5 8z" />
<glyph unicode="z" horiz-adv-x="909" d="M61 0l23 106l762 832h-524l26 127h725l-22 -107l-762 -831h585l-26 -127h-787z" />
<glyph unicode="{" horiz-adv-x="681" d="M225 -25q0 18 3 37t8 41l88 408q6 33 6 59q0 100 -99 101l19 86q63 0 104 40.5t58 118.5l88 408q23 104 82 164.5t157 60.5h127l-18 -86h-78q-43 0 -73.5 -26.5t-43.5 -88.5l-102 -471q-16 -78 -65.5 -114.5t-120.5 -46.5l-3 -4q57 -10 90 -37t33 -80q0 -20 -6 -45 l-100 -471q-6 -25 -6 -45q0 -70 71 -70h78l-18 -86h-127q-78 0 -115 39t-37 108z" />
<glyph unicode="|" horiz-adv-x="454" d="M158 -20l329 1519h127l-329 -1519h-127z" />
<glyph unicode="}" horiz-adv-x="681" d="M100 -172l19 86h78q43 0 73.5 26.5t44.5 88.5l101 471q16 78 65 114.5t121 47.5l2 4q-57 10 -90 36.5t-33 79.5q0 20 6 45l103 471q4 12 4 23v20q0 72 -72 72h-78l19 86h127q78 0 114.5 -39t36.5 -108q0 -18 -3 -37t-7 -41l-88 -408q-6 -35 -6 -59q0 -100 98 -100 l-18 -86q-63 0 -104.5 -41t-57.5 -119l-88 -408q-23 -104 -82 -164.5t-158 -60.5h-127z" />
<glyph unicode="~" horiz-adv-x="1228" d="M240 483q27 35 57.5 69t67 59.5t80.5 41t96 15.5q57 0 112.5 -21.5t108.5 -48.5t99 -48.5t85 -21.5q61 0 113.5 46.5t99.5 99.5l60 -90q-33 -35 -67 -68t-69.5 -58.5t-76.5 -41t-88 -15.5q-61 0 -106.5 21.5t-92.5 48.5q-45 27 -94.5 48.5t-120.5 21.5q-68 0 -118 -46 t-87 -104z" />
<glyph unicode="&#xa1;" horiz-adv-x="681" d="M143 -414l263 1012h131l-177 -1012h-217zM422 840l49 225h201l-49 -225h-201z" />
<glyph unicode="&#xa2;" horiz-adv-x="1251" d="M231 -227l162 278q-117 98 -117 297q0 78 23 184q27 129 80 231.5t124.5 174.5t161 109.5t189.5 37.5q80 0 129 -18l107 182h116l-135 -231q47 -39 71.5 -95.5t39.5 -125.5l-148 -49q-10 84 -45 131l-436 -756q20 -10 42.5 -13.5t47.5 -3.5q51 0 93 9.5t82 32t79 60.5 t82 95l106 -53q-55 -68 -105 -119t-105.5 -85t-118 -50t-142.5 -16q-37 0 -69.5 5t-61.5 17l-135 -229h-117zM426 367q0 -113 47 -179l438 754q-37 16 -84 16q-137 0 -237.5 -110.5t-143.5 -315.5q-20 -88 -20 -165z" />
<glyph unicode="&#xa3;" horiz-adv-x="1251" d="M49 -20l35 159q45 8 92 36t90 73t76 105.5t49 131.5q10 53 17.5 99.5t7.5 87.5h-219l28 127h201q4 59 8 116.5t19 124.5q23 104 70.5 188.5t118.5 145t162 93t200 32.5q193 0 284.5 -99.5t95.5 -281.5l-145 -24q-4 43 -15.5 92t-39 90t-74.5 68.5t-125 27.5 q-90 0 -153.5 -26.5t-107.5 -69.5t-69.5 -96.5t-38.5 -106.5q-18 -86 -26 -153.5t-12 -120.5h311l-29 -127h-295v-17q0 -29 -4 -57.5t-12 -65.5q-14 -61 -40 -132.5t-77 -143.5q45 -25 87 -51.5t81 -48t77 -36t79 -14.5q145 0 231 69t139 194l127 -25q-72 -186 -195.5 -275 t-293.5 -89q-78 0 -138.5 14t-110.5 37.5t-95 51.5l-90 56q-53 -59 -121 -103t-160 -56z" />
<glyph unicode="&#xa4;" horiz-adv-x="1251" d="M180 311l137 113q-53 90 -53 205q0 51 12 110q18 90 65.5 170t113.5 146l-88 112l104 86l90 -114q72 51 157 79.5t175 28.5t162.5 -28.5t124.5 -79.5l139 114l67 -86l-137 -112q53 -90 54 -209q0 -27 -2.5 -52.5t-8.5 -54.5q-20 -90 -67 -170t-113 -145l88 -113l-104 -86 l-90 115q-72 -51 -157 -80t-175 -29t-163 29t-124 80l-139 -115zM391 639q0 -137 86 -213t223 -76q80 0 155 26.5t137.5 77t107.5 123t65 162.5q6 27 8.5 50.5t2.5 46.5q0 135 -85 213.5t-223 78.5q-80 0 -155.5 -27.5t-138 -77.5t-107.5 -123t-64 -161q-12 -53 -12 -100z " />
<glyph unicode="&#xa5;" horiz-adv-x="1251" d="M295 479l29 127h362l2 17l-49 163h-277l27 127h209l-178 566h147l224 -711l530 711h147l-424 -566h209l-26 -127h-275l-125 -163l-2 -17h363l-29 -127h-362l-103 -479h-139l102 479h-362z" />
<glyph unicode="&#xa6;" horiz-adv-x="454" d="M158 -20l125 573h127l-125 -573h-127zM362 926l125 573h127l-125 -573h-127z" />
<glyph unicode="&#xa7;" d="M199 8l118 66q25 -53 66 -94t115 -41q61 0 109 35.5t61 95.5q2 8 2 22q0 45 -28 100.5t-70 116t-91 125t-91 127t-69.5 120.5t-27.5 107q0 18 2 27q20 96 94 153.5t199 63.5q-31 53 -53.5 90t-22.5 88q0 14 2 28.5t6 31.5q8 45 37 87t70 73.5t93 50t111 18.5 q92 0 150.5 -39t112.5 -131l-111 -55q-8 12 -20.5 31.5t-32 38t-48 32t-67.5 13.5q-61 0 -103 -36t-53 -83q-2 -8 -3 -14.5t-1 -14.5q0 -18 8.5 -37.5t29 -51.5t55 -78t90.5 -116q53 -68 90 -119t59.5 -90.5t32.5 -73.5t10 -67q0 -29 -6 -59q-12 -51 -37.5 -90t-62.5 -65.5 t-81 -43t-91 -22.5q29 -45 46 -86t17 -95q0 -39 -8 -73q-10 -45 -37 -89t-69 -79t-100 -56.5t-128 -21.5q-104 0 -175 50t-99 130zM432 795q0 -43 30 -90.5t89 -124.5q33 -45 57.5 -75t46 -47.5t42 -24.5t42.5 -7q47 0 89 30.5t55 84.5q2 8 2 22q0 39 -27 92.5t-94 139.5 q-37 47 -62.5 74.5t-45 42t-37 18.5t-37.5 4q-51 0 -94.5 -33t-53.5 -80q-2 -6 -2 -14v-12z" />
<glyph unicode="&#xa8;" horiz-adv-x="569" d="M293 1208l43 193h180l-43 -193h-180zM616 1208l43 193h181l-43 -193h-181z" />
<glyph unicode="&#xa9;" horiz-adv-x="1638" d="M190 573q1 82 19 168q35 164 127 302.5t219 239.5t279.5 158.5t310.5 57.5q135 0 248.5 -44t196.5 -122t130 -187.5t47 -240.5q0 -78 -18 -164q-37 -166 -129 -305t-219 -240.5t-278.5 -158.5t-307.5 -57q-135 0 -249.5 43t-197.5 121.5t-130.5 187t-47.5 241.5zM340 590 q0 -109 36 -199t101.5 -154.5t157.5 -99.5t207 -35q131 0 255 48.5t226 133.5t175 201.5t104 255.5q8 39 12 75t4 71q0 106 -36 196.5t-101.5 156t-157.5 101t-205 35.5q-133 0 -257 -48t-226.5 -133t-176 -201.5t-102.5 -252.5q-10 -41 -13 -78.5t-3 -72.5zM547 625 q0 57 12 118q20 100 69.5 185.5t120 147t159.5 96t192 34.5q139 0 226 -73.5t87 -214.5v-25h-137v4q0 86 -53.5 136t-147.5 50q-72 0 -132 -25.5t-107.5 -70.5t-80 -106.5t-48.5 -135.5q-4 -25 -7.5 -48t-3.5 -46q0 -109 58.5 -181.5t175.5 -72.5q98 0 174 54.5t108 146.5 h140q-63 -150 -184 -237t-263 -87q-172 0 -265 98.5t-93 252.5z" />
<glyph unicode="&#xaa;" horiz-adv-x="614" d="M242 971q0 10 1 20t3 21q12 51 44 93t89 73.5t141 57.5t199 44l6 27q2 8 2 22q0 39 -29.5 57.5t-83.5 18.5q-80 0 -127 -28.5t-69 -61.5l-72 49q45 55 118 95t171 40q39 0 76 -8t65.5 -25.5t46 -45t17.5 -68.5v-23q0 -10 -4 -22l-70 -322q-10 -39 -12 -64.5t-2 -46.5v-26 h-109l4 72q-41 -25 -100.5 -54.5t-136.5 -29.5q-72 0 -120 33.5t-48 101.5zM354 995q0 -29 21.5 -47t62.5 -18q55 0 119 27.5t105 60.5l36 168q-154 -29 -239.5 -70t-102.5 -106q0 -4 -1 -7.5t-1 -7.5z" />
<glyph unicode="&#xab;" d="M279 532l335 324h144l-334 -324l194 -323h-139zM565 532l336 324h143l-333 -324l194 -323h-139z" />
<glyph unicode="&#xac;" horiz-adv-x="1228" d="M227 678l29 127h1065l-119 -545h-127l90 418h-938z" />
<glyph unicode="&#xad;" horiz-adv-x="681" d="M182 469l27 127h516l-27 -127h-516z" />
<glyph unicode="&#xae;" horiz-adv-x="1638" d="M190 573q1 82 19 168q35 164 127 302.5t219 239.5t279.5 158.5t310.5 57.5q135 0 248.5 -44t196.5 -122t130 -187.5t47 -240.5q0 -78 -18 -164q-37 -166 -129 -305t-219 -240.5t-278.5 -158.5t-307.5 -57q-135 0 -249.5 43t-197.5 121.5t-130.5 187t-47.5 241.5zM340 590 q0 -109 36 -199t101.5 -154.5t157.5 -99.5t207 -35q131 0 255 48.5t226 133.5t175 201.5t104 255.5q8 39 12 75t4 71q0 106 -36 196.5t-101.5 156t-157.5 101t-205 35.5q-133 0 -257 -48t-226.5 -133t-176 -201.5t-102.5 -252.5q-10 -41 -13 -78.5t-3 -72.5zM588 301 l190 877h336q135 0 200.5 -43t65.5 -136q0 -37 -8 -71q-27 -119 -103.5 -174.5t-178.5 -67.5l165 -385h-147l-150 381h-151l-84 -381h-135zM829 793h160q123 0 177.5 35.5t70.5 107.5q2 10 3 19.5t1 19.5q0 45 -37 68.5t-133 23.5h-182z" />
<glyph unicode="&#xaf;" horiz-adv-x="569" d="M236 1253l26 123h639l-27 -123h-638z" />
<glyph unicode="&#xb0;" horiz-adv-x="819" d="M367 1139q0 16 2 32.5t6 32.5q12 61 47 114.5t84 93.5t107.5 63.5t119.5 23.5q106 0 172 -65.5t66 -165.5q0 -31 -6 -64q-14 -61 -49 -115.5t-83.5 -94.5t-106.5 -62.5t-120 -22.5q-106 0 -172.5 64.5t-66.5 165.5zM467 1155q0 -70 44 -113t114 -43q41 0 79.5 15.5 t71.5 43t56.5 65.5t33.5 81q4 12 4 23v22q0 72 -43 116t-114 44q-41 0 -80 -15.5t-72 -43t-56.5 -65.5t-31.5 -81q-6 -25 -6 -49z" />
<glyph unicode="&#xb1;" horiz-adv-x="1228" d="M82 0l27 127h1065l-27 -127h-1065zM205 571l26 127h469l80 367h127l-80 -367h469l-26 -127h-469l-80 -366h-127l80 366h-469z" />
<glyph unicode="&#xb2;" horiz-adv-x="749" d="M186 598l23 111q86 113 190.5 182.5t197.5 121.5t162.5 104t88.5 132q2 10 3 17.5t1 15.5q0 51 -39 83t-117 32q-53 0 -97 -15.5t-80 -41t-61.5 -58.5t-41.5 -65l-86 32q25 49 61.5 94.5t86.5 80t111.5 55t135.5 20.5q113 0 177.5 -48t64.5 -136q0 -27 -6 -53 q-14 -72 -56.5 -126.5t-99.5 -97.5t-124 -80.5t-133.5 -75.5t-126 -82t-102.5 -100h525l-23 -102h-635z" />
<glyph unicode="&#xb3;" horiz-adv-x="749" d="M188 758l97 65q39 -74 96 -104.5t133 -30.5q104 0 169 41t79 111q6 27 6 51q0 66 -52 98.5t-175 32.5h-92l20 102h84q117 0 185.5 35t86.5 119q2 6 2 16q0 41 -38.5 72t-106.5 31q-43 0 -77 -6.5t-61.5 -19.5t-53 -32.5t-54.5 -46.5l-74 58q63 63 144.5 106t198.5 43 q113 0 175 -44t62 -128q0 -23 -6 -49q-18 -80 -67.5 -128t-108.5 -67v-4q66 -23 92.5 -74t26.5 -106q0 -31 -7 -57q-25 -115 -127 -185.5t-253 -70.5q-70 0 -122.5 17.5t-89 43t-59 56t-33.5 55.5z" />
<glyph unicode="&#xb4;" horiz-adv-x="569" d="M408 1188l245 291h224l-332 -291h-137z" />
<glyph unicode="&#xb5;" horiz-adv-x="1138" d="M96 -393l316 1458h147l-166 -770q-8 -35 -8 -68q0 -66 38 -93.5t103 -27.5q41 0 88.5 15.5t92.5 39t87 52.5t72 55l172 797h148l-230 -1065h-147l31 143h-4q-78 -72 -169.5 -117.5t-183.5 -45.5q-88 0 -151 32l-88 -405h-148z" />
<glyph unicode="&#xb6;" d="M244 991q0 41 8 80q43 203 187.5 305.5t361.5 102.5h567l-22 -103h-146l-336 -1548h-123l336 1548h-209l-336 -1548h-122l184 850q-80 0 -145.5 24.5t-110.5 66.5t-69.5 99.5t-24.5 122.5z" />
<glyph unicode="&#xb7;" horiz-adv-x="624" d="M295 500q0 10 4 30q10 53 54 91t100 38q47 0 74.5 -28.5t27.5 -73.5v-14q0 -6 -2 -13q-12 -53 -57 -88.5t-99 -35.5q-47 0 -74.5 26.5t-27.5 67.5z" />
<glyph unicode="&#xb8;" horiz-adv-x="569" d="M-29 -416l52 90q25 -18 58.5 -28.5t68.5 -10.5q113 0 133 89q2 6 2 18q0 27 -17.5 43t-50.5 16q-23 0 -48.5 -3t-49.5 -13l-27 39l168 176h98l-122 -119l4 -4q31 10 63 10q72 0 105.5 -36.5t33.5 -88.5q0 -23 -6 -47q-18 -86 -93 -130t-191 -44q-63 0 -106.5 13.5 t-74.5 29.5z" />
<glyph unicode="&#xb9;" horiz-adv-x="749" d="M303 598l23 102h155l150 697l-180 -27l14 68q53 14 107.5 28.5t89.5 32.5h110l-172 -799h162l-23 -102h-436z" />
<glyph unicode="&#xba;" horiz-adv-x="614" d="M264 1065q0 47 12 102q35 156 130.5 244t224.5 88q109 0 166 -59.5t57 -167.5q0 -49 -12 -105q-35 -156 -129.5 -243.5t-225.5 -87.5q-106 0 -164.5 60t-58.5 169zM383 1075q0 -141 125 -141q82 0 137 61.5t78 171.5q4 25 7 48.5t3 44.5q0 68 -29.5 104.5t-93.5 36.5 q-78 0 -135 -62t-80 -168q-12 -55 -12 -96z" />
<glyph unicode="&#xbb;" d="M209 209l334 323l-195 324h144l196 -324l-340 -323h-139zM496 209l333 323l-194 324h143l197 -324l-340 -323h-139z" />
<glyph unicode="&#xbc;" horiz-adv-x="1875" d="M328 598l22 102h156l149 697l-180 -27l14 68q53 14 107.5 28.5t89.5 32.5h111l-172 -799h161l-22 -102h-436zM442 -20l1229 1519h127l-1235 -1519h-121zM1120 209l19 92l506 588h157l-125 -578h166l-20 -102h-166l-45 -209h-111l45 209h-426zM1266 311h301l100 459h-4z " />
<glyph unicode="&#xbd;" horiz-adv-x="1875" d="M328 598l22 102h156l149 697l-180 -27l14 68q53 14 107.5 28.5t89.5 32.5h111l-172 -799h161l-22 -102h-436zM401 -20l1229 1519h127l-1235 -1519h-121zM1126 0l23 111q57 76 123.5 130t133.5 97t130 77t115.5 68.5t87.5 74.5t47 93q2 10 3 17.5t1 15.5q0 51 -38 83 t-116 32q-53 0 -97 -15.5t-80 -41t-61.5 -58.5t-41.5 -66l-88 33q25 49 62.5 94.5t87.5 80t111.5 55t135.5 20.5q113 0 177.5 -48t64.5 -136q0 -27 -6 -53q-16 -72 -58.5 -126.5t-98.5 -97.5t-124 -80.5t-133.5 -75.5t-126 -82t-103.5 -100h525l-21 -102h-635z" />
<glyph unicode="&#xbe;" horiz-adv-x="1875" d="M262 758l96 65q39 -74 96.5 -104.5t133.5 -30.5q104 0 168.5 41t79.5 111q6 27 6 51q0 66 -52.5 98.5t-175.5 32.5h-92l21 102h84q117 0 185.5 35t86.5 119q2 6 2 16q0 41 -39 72t-106 31q-43 0 -77 -6.5t-61.5 -19.5t-53 -32.5t-54.5 -46.5l-74 58q63 63 144.5 106 t197.5 43q113 0 175.5 -44t62.5 -128q0 -23 -6 -49q-18 -80 -67.5 -128t-108.5 -67v-4q66 -23 92 -74t26 -106q0 -31 -6 -57q-25 -115 -127 -185.5t-254 -70.5q-70 0 -122 17.5t-89 43t-59.5 56t-32.5 55.5zM475 -20l1229 1519h127l-1235 -1519h-121zM1120 209l19 92 l506 588h157l-125 -578h166l-20 -102h-166l-45 -209h-111l45 209h-426zM1266 311h301l100 459h-4z" />
<glyph unicode="&#xbf;" horiz-adv-x="909" d="M100 -197q0 39 9 74q14 66 50 121t82 104.5t98 93.5t97 89t80 93t47 105l25 115h139l-25 -113q-16 -78 -52 -136t-81 -107t-93 -90t-92 -84t-77 -91.5t-45 -107.5q-4 -10 -4 -23v-22q0 -51 30.5 -91t106.5 -40q72 0 129.5 35.5t120.5 121.5l109 -59q-74 -111 -172.5 -168 t-208.5 -57q-55 0 -105.5 15.5t-87.5 46t-58.5 74.5t-21.5 101zM612 840l50 225h200l-49 -225h-201z" />
<glyph unicode="&#xc0;" horiz-adv-x="1251" d="M49 0l774 1479h244l135 -1479h-172l-41 463h-530l-238 -463h-172zM530 602h449l-47 762h-23zM754 1848h223l119 -291h-137z" />
<glyph unicode="&#xc1;" horiz-adv-x="1251" d="M49 0l774 1479h244l135 -1479h-172l-41 463h-530l-238 -463h-172zM530 602h449l-47 762h-23zM830 1557l245 291h224l-332 -291h-137z" />
<glyph unicode="&#xc2;" horiz-adv-x="1251" d="M49 0l774 1479h244l135 -1479h-172l-41 463h-530l-238 -463h-172zM530 602h449l-47 762h-23zM664 1557l264 291h192l142 -291h-164l-96 192l-174 -192h-164z" />
<glyph unicode="&#xc3;" horiz-adv-x="1251" d="M49 0l774 1479h244l135 -1479h-172l-41 463h-530l-238 -463h-172zM530 602h449l-47 762h-23zM613 1575q29 92 97 158t171 66q41 0 75.5 -11.5t65.5 -25.5q33 -16 62.5 -27.5t62.5 -11.5q39 0 68.5 24.5t46.5 65.5h102q-12 -37 -36.5 -76t-57.5 -70.5t-72 -52t-80 -20.5 t-78.5 12t-72.5 27q-37 16 -73 27.5t-73 11.5q-33 0 -64.5 -31t-41.5 -66h-102z" />
<glyph unicode="&#xc4;" horiz-adv-x="1251" d="M49 0l774 1479h244l135 -1479h-172l-41 463h-530l-238 -463h-172zM530 602h449l-47 762h-23zM717 1577l43 193h180l-43 -193h-180zM1040 1577l43 193h181l-43 -193h-181z" />
<glyph unicode="&#xc5;" horiz-adv-x="1251" d="M49 0l774 1479h244l135 -1479h-172l-41 463h-530l-238 -463h-172zM530 602h449l-47 762h-23zM799 1719v20q0 13 4 23q8 43 32.5 79.5t58.5 64.5t74 44t83 16q74 0 120 -46t46 -115v-23q0 -10 -4 -20q-10 -43 -34 -80t-57.5 -64.5t-74.5 -44t-84 -16.5q-74 0 -119 46 t-45 116zM891 1737q0 -39 25.5 -64.5t66.5 -25.5q47 0 88 34t51 81q2 8 2 22q0 41 -25.5 66.5t-66.5 25.5q-47 0 -88 -33.5t-51 -80.5q-2 -8 -2 -25z" />
<glyph unicode="&#xc6;" horiz-adv-x="2048" d="M33 0l1153 1479h1038l-31 -140h-723l-106 -495h514l-31 -139h-514l-123 -566h764l-28 -139h-766h-162l98 463h-545l-352 -463h-186zM682 602h465l166 762h-45z" />
<glyph unicode="&#xc7;" horiz-adv-x="1251" d="M211 459q0 119 35 280q39 180 107.5 321.5t161.5 239t210 148.5t250 51q207 0 304 -112.5t101 -317.5l-159 -45q-4 78 -19.5 140.5t-49.5 105.5t-90 66.5t-138 23.5q-80 0 -158 -37t-145.5 -113.5t-123 -193.5t-87.5 -277q-31 -145 -31 -254q0 -190 83 -278t226 -88 q86 0 152.5 29.5t119 78.5t93.5 112.5t71 131.5l142 -29q-88 -195 -225.5 -319.5t-342.5 -140.5l-102 -101l4 -4q31 10 64 10q72 0 105.5 -36.5t33.5 -88.5q0 -23 -6 -47q-18 -86 -93 -130t-192 -44q-63 0 -106.5 13.5t-75.5 29.5l53 90q25 -18 58.5 -28.5t68.5 -10.5 q113 0 133 89q2 6 2 18q0 27 -17.5 43t-49.5 16q-23 0 -48.5 -3t-50.5 -13l-26 39l149 158q-180 12 -285.5 128.5t-105.5 348.5z" />
<glyph unicode="&#xc8;" horiz-adv-x="1251" d="M221 0l320 1479h886l-30 -140h-723l-107 -495h514l-30 -139h-514l-123 -566h764l-29 -139h-766h-162zM811 1848h223l119 -291h-137z" />
<glyph unicode="&#xc9;" horiz-adv-x="1251" d="M221 0l320 1479h886l-30 -140h-723l-107 -495h514l-30 -139h-514l-123 -566h764l-29 -139h-766h-162zM889 1557l245 291h224l-332 -291h-137z" />
<glyph unicode="&#xca;" horiz-adv-x="1251" d="M221 0l320 1479h886l-30 -140h-723l-107 -495h514l-30 -139h-514l-123 -566h764l-29 -139h-766h-162zM721 1557l264 291h192l142 -291h-164l-96 192l-174 -192h-164z" />
<glyph unicode="&#xcb;" horiz-adv-x="1251" d="M221 0l320 1479h886l-30 -140h-723l-107 -495h514l-30 -139h-514l-123 -566h764l-29 -139h-766h-162zM774 1577l43 193h180l-43 -193h-180zM1097 1577l43 193h181l-43 -193h-181z" />
<glyph unicode="&#xcc;" horiz-adv-x="681" d="M258 0l320 1479h163l-319 -1479h-164zM467 1848h223l119 -291h-137z" />
<glyph unicode="&#xcd;" horiz-adv-x="681" d="M258 0l320 1479h163l-319 -1479h-164zM547 1557l245 291h224l-332 -291h-137z" />
<glyph unicode="&#xce;" horiz-adv-x="681" d="M258 0l320 1479h163l-319 -1479h-164zM377 1557l264 291h192l142 -291h-164l-96 192l-174 -192h-164z" />
<glyph unicode="&#xcf;" horiz-adv-x="681" d="M258 0l320 1479h163l-319 -1479h-164zM430 1577l43 193h180l-43 -193h-180zM753 1577l43 193h181l-43 -193h-181z" />
<glyph unicode="&#xd0;" horiz-adv-x="1366" d="M205 0l151 705h-139l31 139h139l137 635h398q250 0 392 -128t142 -382q0 -109 -26 -230q-35 -164 -108 -299t-179.5 -233t-244.5 -152.5t-304 -54.5h-229h-160zM397 139h221q256 0 419 150.5t229 449.5q25 119 24 213q0 205 -108.5 296t-294.5 91h-230l-106 -495h385 l-31 -139h-385z" />
<glyph unicode="&#xd1;" horiz-adv-x="1478" d="M221 0l320 1479h235l398 -1139h8l248 1139h147l-320 -1479h-135l-465 1319h-4l-284 -1319h-148zM730 1575q29 92 97 158t171 66q41 0 75.5 -11.5t65.5 -25.5q33 -16 62.5 -27.5t62.5 -11.5q39 0 68.5 24.5t46.5 65.5h102q-12 -37 -36.5 -76t-57.5 -70.5t-72 -52 t-80 -20.5t-78.5 12t-72.5 27q-37 16 -73 27.5t-73 11.5q-33 0 -64.5 -31t-41.5 -66h-102z" />
<glyph unicode="&#xd2;" horiz-adv-x="1366" d="M231 461q0 61 8.5 130.5t24.5 147.5q80 371 274.5 565.5t467.5 194.5q217 0 331.5 -123t114.5 -360q0 -127 -33 -277q-82 -373 -275.5 -566t-467.5 -193q-217 0 -331 122.5t-114 358.5zM395 479q0 -184 81 -272t231 -88q197 0 338 151.5t210 468.5q31 143 31 256 q0 186 -80 275.5t-231 89.5q-195 0 -337 -153t-210 -468q-16 -74 -24.5 -139t-8.5 -121zM809 1848h223l119 -291h-137z" />
<glyph unicode="&#xd3;" horiz-adv-x="1366" d="M231 461q0 61 8.5 130.5t24.5 147.5q80 371 274.5 565.5t467.5 194.5q217 0 331.5 -123t114.5 -360q0 -127 -33 -277q-82 -373 -275.5 -566t-467.5 -193q-217 0 -331 122.5t-114 358.5zM395 479q0 -184 81 -272t231 -88q197 0 338 151.5t210 468.5q31 143 31 256 q0 186 -80 275.5t-231 89.5q-195 0 -337 -153t-210 -468q-16 -74 -24.5 -139t-8.5 -121zM889 1557l245 291h224l-332 -291h-137z" />
<glyph unicode="&#xd4;" horiz-adv-x="1366" d="M231 461q0 61 8.5 130.5t24.5 147.5q80 371 274.5 565.5t467.5 194.5q217 0 331.5 -123t114.5 -360q0 -127 -33 -277q-82 -373 -275.5 -566t-467.5 -193q-217 0 -331 122.5t-114 358.5zM395 479q0 -184 81 -272t231 -88q197 0 338 151.5t210 468.5q31 143 31 256 q0 186 -80 275.5t-231 89.5q-195 0 -337 -153t-210 -468q-16 -74 -24.5 -139t-8.5 -121zM723 1557l264 291h192l142 -291h-164l-96 192l-174 -192h-164z" />
<glyph unicode="&#xd5;" horiz-adv-x="1366" d="M231 461q0 61 8.5 130.5t24.5 147.5q80 371 274.5 565.5t467.5 194.5q217 0 331.5 -123t114.5 -360q0 -127 -33 -277q-82 -373 -275.5 -566t-467.5 -193q-217 0 -331 122.5t-114 358.5zM395 479q0 -184 81 -272t231 -88q197 0 338 151.5t210 468.5q31 143 31 256 q0 186 -80 275.5t-231 89.5q-195 0 -337 -153t-210 -468q-16 -74 -24.5 -139t-8.5 -121zM674 1575q29 92 97 158t171 66q41 0 75.5 -11.5t65.5 -25.5q33 -16 62.5 -27.5t62.5 -11.5q39 0 68.5 24.5t46.5 65.5h102q-12 -37 -36.5 -76t-57.5 -70.5t-72 -52t-80 -20.5t-78.5 12 t-72.5 27q-37 16 -73 27.5t-73 11.5q-33 0 -64.5 -31t-41.5 -66h-102z" />
<glyph unicode="&#xd6;" horiz-adv-x="1366" d="M231 461q0 61 8.5 130.5t24.5 147.5q80 371 274.5 565.5t467.5 194.5q217 0 331.5 -123t114.5 -360q0 -127 -33 -277q-82 -373 -275.5 -566t-467.5 -193q-217 0 -331 122.5t-114 358.5zM395 479q0 -184 81 -272t231 -88q197 0 338 151.5t210 468.5q31 143 31 256 q0 186 -80 275.5t-231 89.5q-195 0 -337 -153t-210 -468q-16 -74 -24.5 -139t-8.5 -121zM772 1577l43 193h180l-43 -193h-180zM1095 1577l43 193h181l-43 -193h-181z" />
<glyph unicode="&#xd7;" horiz-adv-x="1228" d="M100 90l539 442l-346 443l108 90l347 -447l538 447l72 -90l-539 -443l346 -442l-108 -90l-348 442l-537 -442z" />
<glyph unicode="&#xd8;" horiz-adv-x="1366" d="M37 -131l258 305q-63 117 -64 289q0 127 33 276q80 371 274.5 565.5t467.5 194.5q201 0 313 -106l154 184h143l-227 -270q63 -117 63 -291q0 -127 -33 -277q-82 -373 -275.5 -566t-467.5 -193q-201 0 -316 110l-186 -221h-137zM397 487q0 -92 23 -163l790 940 q-78 96 -235 96q-195 0 -337 -152.5t-210 -468.5q-31 -145 -31 -252zM471 219q74 -100 236 -100q197 0 338 151.5t210 468.5q31 143 31 252q0 94 -22 168z" />
<glyph unicode="&#xd9;" horiz-adv-x="1478" d="M305 332q0 53 12 114l224 1033h164l-228 -1045q-8 -33 -8 -72q0 -104 72.5 -173.5t222.5 -69.5q86 0 157.5 24.5t126 67.5t89 100.5t49.5 122.5l227 1045h164l-223 -1033q-25 -111 -81 -197.5t-138 -146t-184.5 -91t-217.5 -31.5q-199 0 -313.5 92t-114.5 260zM867 1848 h223l119 -291h-137z" />
<glyph unicode="&#xda;" horiz-adv-x="1478" d="M305 332q0 53 12 114l224 1033h164l-228 -1045q-8 -33 -8 -72q0 -104 72.5 -173.5t222.5 -69.5q86 0 157.5 24.5t126 67.5t89 100.5t49.5 122.5l227 1045h164l-223 -1033q-25 -111 -81 -197.5t-138 -146t-184.5 -91t-217.5 -31.5q-199 0 -313.5 92t-114.5 260zM940 1557 l245 291h224l-332 -291h-137z" />
<glyph unicode="&#xdb;" horiz-adv-x="1478" d="M305 332q0 53 12 114l224 1033h164l-228 -1045q-8 -33 -8 -72q0 -104 72.5 -173.5t222.5 -69.5q86 0 157.5 24.5t126 67.5t89 100.5t49.5 122.5l227 1045h164l-223 -1033q-25 -111 -81 -197.5t-138 -146t-184.5 -91t-217.5 -31.5q-199 0 -313.5 92t-114.5 260zM777 1557 l264 291h192l142 -291h-164l-96 192l-174 -192h-164z" />
<glyph unicode="&#xdc;" horiz-adv-x="1478" d="M305 332q0 53 12 114l224 1033h164l-228 -1045q-8 -33 -8 -72q0 -104 72.5 -173.5t222.5 -69.5q86 0 157.5 24.5t126 67.5t89 100.5t49.5 122.5l227 1045h164l-223 -1033q-25 -111 -81 -197.5t-138 -146t-184.5 -91t-217.5 -31.5q-199 0 -313.5 92t-114.5 260zM830 1577 l43 193h180l-43 -193h-180zM1153 1577l43 193h181l-43 -193h-181z" />
<glyph unicode="&#xdd;" horiz-adv-x="1138" d="M352 1479h180l209 -678l504 678h180l-641 -856l-133 -623h-164l134 623zM775 1557l245 291h224l-332 -291h-137z" />
<glyph unicode="&#xde;" horiz-adv-x="1251" d="M205 0l319 1479h164l-63 -287h352q98 0 170 -22.5t118 -63.5t67.5 -96.5t21.5 -122.5q0 -53 -13 -109q-41 -184 -196.5 -294.5t-433.5 -110.5h-262l-80 -373h-164zM479 512h279q102 0 175 17.5t123 51t78.5 85t43.5 116.5q4 20 6 40t2 38q0 193 -275 193h-315z" />
<glyph unicode="&#xdf;" horiz-adv-x="1138" d="M193 0l243 1135q20 98 68.5 167.5t111 112.5t136 63.5t145.5 20.5q156 0 230.5 -72.5t74.5 -189.5q0 -23 -2 -46.5t-8 -47.5q-23 -104 -85.5 -184t-162.5 -125l-2 -5q104 -33 150.5 -107.5t46.5 -180.5q0 -61 -17 -140q-23 -102 -68.5 -180t-106 -132t-129 -81.5 t-136.5 -27.5q-74 0 -119 14t-84 41l82 121q16 -16 50 -33t87 -17q55 0 100.5 23t79 60.5t58.5 90t37 111.5q14 63 14 119q0 133 -82 188.5t-225 55.5l29 127h59q45 0 89 18.5t81 52t64.5 78.5t39.5 100q4 23 7.5 41.5t3.5 36.5q0 78 -45 121t-142 43q-121 0 -187.5 -69.5 t-100.5 -204.5l-238 -1098h-147z" />
<glyph unicode="&#xe0;" d="M135 199q0 39 8 73q18 88 68.5 155t139.5 119t221.5 91t316.5 70l12 57q6 31 6 55q0 76 -50 107.5t-132 31.5q-61 0 -111.5 -15t-88.5 -39.5t-65.5 -54.5t-43.5 -56l-115 67q72 92 184.5 158.5t264.5 66.5q59 0 114.5 -13t98.5 -42t69.5 -74t26.5 -110q0 -33 -10 -80 l-115 -537q-16 -66 -21.5 -109.5t-5.5 -78.5q0 -10 1 -20.5t1 -20.5h-151l14 147q-70 -61 -169 -114t-220 -53q-106 0 -177 54t-71 165zM287 240q0 -61 45 -97.5t100 -36.5q39 0 86 13.5t96.5 38t95.5 56.5t87 69l63 292q-520 -88 -569 -305q-4 -20 -4 -30zM551 1479h223 l119 -291h-137z" />
<glyph unicode="&#xe1;" d="M135 199q0 39 8 73q18 88 68.5 155t139.5 119t221.5 91t316.5 70l12 57q6 31 6 55q0 76 -50 107.5t-132 31.5q-61 0 -111.5 -15t-88.5 -39.5t-65.5 -54.5t-43.5 -56l-115 67q72 92 184.5 158.5t264.5 66.5q59 0 114.5 -13t98.5 -42t69.5 -74t26.5 -110q0 -33 -10 -80 l-115 -537q-16 -66 -21.5 -109.5t-5.5 -78.5q0 -10 1 -20.5t1 -20.5h-151l14 147q-70 -61 -169 -114t-220 -53q-106 0 -177 54t-71 165zM287 240q0 -61 45 -97.5t100 -36.5q39 0 86 13.5t96.5 38t95.5 56.5t87 69l63 292q-520 -88 -569 -305q-4 -20 -4 -30zM625 1188 l245 291h224l-332 -291h-137z" />
<glyph unicode="&#xe2;" d="M135 199q0 39 8 73q18 88 68.5 155t139.5 119t221.5 91t316.5 70l12 57q6 31 6 55q0 76 -50 107.5t-132 31.5q-61 0 -111.5 -15t-88.5 -39.5t-65.5 -54.5t-43.5 -56l-115 67q72 92 184.5 158.5t264.5 66.5q59 0 114.5 -13t98.5 -42t69.5 -74t26.5 -110q0 -33 -10 -80 l-115 -537q-16 -66 -21.5 -109.5t-5.5 -78.5q0 -10 1 -20.5t1 -20.5h-151l14 147q-70 -61 -169 -114t-220 -53q-106 0 -177 54t-71 165zM287 240q0 -61 45 -97.5t100 -36.5q39 0 86 13.5t96.5 38t95.5 56.5t87 69l63 292q-520 -88 -569 -305q-4 -20 -4 -30zM459 1188 l264 291h192l142 -291h-164l-96 192l-174 -192h-164z" />
<glyph unicode="&#xe3;" d="M135 199q0 39 8 73q18 88 68.5 155t139.5 119t221.5 91t316.5 70l12 57q6 31 6 55q0 76 -50 107.5t-132 31.5q-61 0 -111.5 -15t-88.5 -39.5t-65.5 -54.5t-43.5 -56l-115 67q72 92 184.5 158.5t264.5 66.5q59 0 114.5 -13t98.5 -42t69.5 -74t26.5 -110q0 -33 -10 -80 l-115 -537q-16 -66 -21.5 -109.5t-5.5 -78.5q0 -10 1 -20.5t1 -20.5h-151l14 147q-70 -61 -169 -114t-220 -53q-106 0 -177 54t-71 165zM287 240q0 -61 45 -97.5t100 -36.5q39 0 86 13.5t96.5 38t95.5 56.5t87 69l63 292q-520 -88 -569 -305q-4 -20 -4 -30zM412 1206 q29 92 97 158t171 66q41 0 75.5 -11.5t65.5 -25.5q33 -16 62.5 -27.5t62.5 -11.5q39 0 68.5 24.5t46.5 65.5h102q-12 -37 -36.5 -76t-57.5 -70.5t-72 -52t-80 -20.5t-78.5 12t-72.5 27q-37 16 -73 27.5t-73 11.5q-33 0 -64.5 -31t-41.5 -66h-102z" />
<glyph unicode="&#xe4;" d="M135 199q0 39 8 73q18 88 68.5 155t139.5 119t221.5 91t316.5 70l12 57q6 31 6 55q0 76 -50 107.5t-132 31.5q-61 0 -111.5 -15t-88.5 -39.5t-65.5 -54.5t-43.5 -56l-115 67q72 92 184.5 158.5t264.5 66.5q59 0 114.5 -13t98.5 -42t69.5 -74t26.5 -110q0 -33 -10 -80 l-115 -537q-16 -66 -21.5 -109.5t-5.5 -78.5q0 -10 1 -20.5t1 -20.5h-151l14 147q-70 -61 -169 -114t-220 -53q-106 0 -177 54t-71 165zM287 240q0 -61 45 -97.5t100 -36.5q39 0 86 13.5t96.5 38t95.5 56.5t87 69l63 292q-520 -88 -569 -305q-4 -20 -4 -30zM512 1208l43 193 h180l-43 -193h-180zM835 1208l43 193h181l-43 -193h-181z" />
<glyph unicode="&#xe5;" d="M135 199q0 39 8 73q18 88 68.5 155t139.5 119t221.5 91t316.5 70l12 57q6 31 6 55q0 76 -50 107.5t-132 31.5q-61 0 -111.5 -15t-88.5 -39.5t-65.5 -54.5t-43.5 -56l-115 67q72 92 184.5 158.5t264.5 66.5q59 0 114.5 -13t98.5 -42t69.5 -74t26.5 -110q0 -33 -10 -80 l-115 -537q-16 -66 -21.5 -109.5t-5.5 -78.5q0 -10 1 -20.5t1 -20.5h-151l14 147q-70 -61 -169 -114t-220 -53q-106 0 -177 54t-71 165zM287 240q0 -61 45 -97.5t100 -36.5q39 0 86 13.5t96.5 38t95.5 56.5t87 69l63 292q-520 -88 -569 -305q-4 -20 -4 -30zM596 1350v20 q0 13 4 23q8 43 32.5 79.5t58.5 64.5t74 44t83 16q74 0 120 -46t46 -115v-23q0 -10 -4 -20q-10 -43 -34 -80t-57.5 -64.5t-74.5 -44t-84 -16.5q-74 0 -119 46t-45 116zM688 1368q0 -39 25.5 -64.5t66.5 -25.5q47 0 88 34t51 81q2 8 2 22q0 41 -25.5 66.5t-66.5 25.5 q-47 0 -88 -33.5t-51 -80.5q-2 -8 -2 -25z" />
<glyph unicode="&#xe6;" horiz-adv-x="1593" d="M117 193q0 27 6 57q27 119 95.5 197.5t165.5 130t215 80t241 49.5l12 57q4 16 6 31.5t2 29.5q0 133 -166 133q-59 0 -106 -15t-85 -39.5t-65.5 -54.5t-44.5 -56l-110 67q68 92 178 158.5t252 66.5q100 0 171.5 -32.5t104.5 -110.5q57 55 142.5 99t195.5 44q66 0 123 -18 t99 -58t65.5 -101.5t23.5 -145.5q0 -72 -18 -160l-21 -98h-655q-18 -80 -18 -148q0 -119 57 -184.5t178 -65.5q80 0 162 48.5t147 132.5l103 -60q-37 -45 -80 -89t-97.5 -79.5t-122 -57t-153.5 -21.5q-49 0 -95 7t-88 26.5t-76 54t-58 92.5q-72 -57 -130.5 -92t-112.5 -54.5 t-104 -26.5t-102 -7q-47 0 -89 14t-75.5 40.5t-53 66.5t-19.5 92zM270 236q0 -59 41 -94.5t101 -35.5q51 0 102 16.5t96 41t81 54.5t57 56l63 301q-84 -16 -172 -39.5t-164 -58.5t-131 -86t-70 -121q-2 -10 -3 -18t-1 -16zM971 631h508q12 57 12 106q0 102 -50 161.5 t-149 59.5q-129 0 -207.5 -90t-113.5 -237z" />
<glyph unicode="&#xe7;" d="M174 348q0 78 23 184q27 129 80 231.5t124.5 174.5t160.5 109.5t190 37.5q82 0 139 -21.5t95 -60t59.5 -92t33.5 -114.5l-147 -49q-10 98 -60.5 154t-146.5 56q-137 0 -237.5 -110.5t-143.5 -315.5q-20 -88 -20 -165q0 -125 55 -193t162 -68q51 0 93 9.5t82 32t79 60.5 t82 95l106 -53q-51 -61 -97 -109.5t-95.5 -82t-103.5 -52t-122 -24.5l-102 -101l4 -4q31 10 63 10q72 0 106 -36.5t34 -88.5q0 -23 -6 -47q-18 -86 -93 -130t-192 -44q-63 0 -106.5 13.5t-75.5 29.5l53 90q25 -18 58.5 -28.5t68.5 -10.5q113 0 133 89q2 6 2 18 q0 27 -17.5 43t-50.5 16q-23 0 -48 -3t-50 -13l-27 39l150 158q-141 14 -218 108t-77 258z" />
<glyph unicode="&#xe8;" d="M176 358q0 84 21 174q27 129 80 231.5t125.5 174.5t160.5 109.5t187 37.5q68 0 126 -18t101 -58t67.5 -100.5t24.5 -146.5q0 -72 -18 -160l-21 -98h-692q-12 -61 -12 -115q0 -129 65.5 -206t175.5 -77q98 0 183.5 48.5t150.5 132.5l103 -60q-37 -45 -80 -89t-98.5 -79.5 t-126 -57t-160.5 -21.5q-74 0 -140.5 22.5t-116 68.5t-78 117.5t-28.5 169.5zM369 631h540q12 57 13 110q0 100 -49.5 158.5t-145.5 58.5q-135 0 -226 -90t-132 -237zM561 1479h223l119 -291h-137z" />
<glyph unicode="&#xe9;" d="M176 358q0 84 21 174q27 129 80 231.5t125.5 174.5t160.5 109.5t187 37.5q68 0 126 -18t101 -58t67.5 -100.5t24.5 -146.5q0 -72 -18 -160l-21 -98h-692q-12 -61 -12 -115q0 -129 65.5 -206t175.5 -77q98 0 183.5 48.5t150.5 132.5l103 -60q-37 -45 -80 -89t-98.5 -79.5 t-126 -57t-160.5 -21.5q-74 0 -140.5 22.5t-116 68.5t-78 117.5t-28.5 169.5zM369 631h540q12 57 13 110q0 100 -49.5 158.5t-145.5 58.5q-135 0 -226 -90t-132 -237zM635 1188l245 291h224l-332 -291h-137z" />
<glyph unicode="&#xea;" d="M176 358q0 84 21 174q27 129 80 231.5t125.5 174.5t160.5 109.5t187 37.5q68 0 126 -18t101 -58t67.5 -100.5t24.5 -146.5q0 -72 -18 -160l-21 -98h-692q-12 -61 -12 -115q0 -129 65.5 -206t175.5 -77q98 0 183.5 48.5t150.5 132.5l103 -60q-37 -45 -80 -89t-98.5 -79.5 t-126 -57t-160.5 -21.5q-74 0 -140.5 22.5t-116 68.5t-78 117.5t-28.5 169.5zM369 631h540q12 57 13 110q0 100 -49.5 158.5t-145.5 58.5q-135 0 -226 -90t-132 -237zM469 1188l264 291h192l142 -291h-164l-96 192l-174 -192h-164z" />
<glyph unicode="&#xeb;" d="M176 358q0 84 21 174q27 129 80 231.5t125.5 174.5t160.5 109.5t187 37.5q68 0 126 -18t101 -58t67.5 -100.5t24.5 -146.5q0 -72 -18 -160l-21 -98h-692q-12 -61 -12 -115q0 -129 65.5 -206t175.5 -77q98 0 183.5 48.5t150.5 132.5l103 -60q-37 -45 -80 -89t-98.5 -79.5 t-126 -57t-160.5 -21.5q-74 0 -140.5 22.5t-116 68.5t-78 117.5t-28.5 169.5zM369 631h540q12 57 13 110q0 100 -49.5 158.5t-145.5 58.5q-135 0 -226 -90t-132 -237zM518 1208l43 193h180l-43 -193h-180zM841 1208l43 193h181l-43 -193h-181z" />
<glyph unicode="&#xec;" horiz-adv-x="569" d="M211 0l229 1065h148l-230 -1065h-147zM332 1479h223l119 -291h-137z" />
<glyph unicode="&#xed;" horiz-adv-x="569" d="M211 0l229 1065h148l-230 -1065h-147zM408 1188l245 291h224l-332 -291h-137z" />
<glyph unicode="&#xee;" horiz-adv-x="569" d="M211 0l229 1065h148l-230 -1065h-147zM242 1188l264 291h192l142 -291h-164l-96 192l-174 -192h-164z" />
<glyph unicode="&#xef;" horiz-adv-x="569" d="M211 0l229 1065h148l-230 -1065h-147zM293 1208l43 193h180l-43 -193h-180zM616 1208l43 193h181l-43 -193h-181z" />
<glyph unicode="&#xf0;" d="M164 326q0 41 5 86t15 92q25 115 72 210t116.5 162.5t160 105.5t198.5 38q43 0 83 -10.5t63 -18.5q-10 47 -34 94.5t-57 94.5l-241 -119l-49 98l231 113q-45 55 -87 96t-69 62l140 49q80 -57 143 -140l252 123l39 -102l-223 -113q72 -111 115.5 -246t43.5 -282 q0 -100 -20 -191q-25 -121 -74 -221t-119.5 -173t-162 -113.5t-199.5 -40.5q-174 0 -258 93t-84 253zM313 352q0 -117 54.5 -181.5t167.5 -64.5q147 0 240 108t134 290q16 82 17 141q0 115 -53.5 181.5t-167.5 66.5q-147 0 -241.5 -106.5t-131.5 -282.5q-18 -84 -19 -152z " />
<glyph unicode="&#xf1;" horiz-adv-x="1138" d="M182 0l230 1065h147l-31 -143h4q78 72 168.5 117.5t182.5 45.5q51 0 96 -12t79 -37.5t54.5 -67.5t20.5 -102q0 -23 -2.5 -44t-8.5 -48l-166 -774h-147l166 770q8 35 8 68q0 66 -38 93t-103 27q-41 0 -88 -15t-93.5 -38.5t-87.5 -52.5t-71 -55l-172 -797h-148zM480 1206 q29 92 97 158t171 66q41 0 75.5 -11.5t65.5 -25.5q33 -16 62.5 -27.5t62.5 -11.5q39 0 68.5 24.5t46.5 65.5h102q-12 -37 -36.5 -76t-57.5 -70.5t-72 -52t-80 -20.5t-78.5 12t-72.5 27q-37 16 -73 27.5t-73 11.5q-33 0 -64.5 -31t-41.5 -66h-102z" />
<glyph unicode="&#xf2;" d="M170 352q0 90 20 180q25 115 74 216.5t120 176t162 117.5t199 43q86 0 151 -27.5t105.5 -77.5t61 -118.5t20.5 -150.5q0 -41 -5 -86.5t-15 -92.5q-25 -115 -75 -216t-120.5 -175.5t-162 -117.5t-199.5 -43q-86 0 -149.5 27.5t-105.5 76.5t-61.5 117.5t-19.5 150.5z M319 369q0 -129 55.5 -196t160.5 -67q133 0 234 109.5t146 316.5q18 92 19 164q0 129 -55.5 195.5t-159.5 66.5q-133 0 -234.5 -109.5t-146.5 -316.5q-18 -92 -19 -163zM557 1479h223l119 -291h-137z" />
<glyph unicode="&#xf3;" d="M170 352q0 90 20 180q25 115 74 216.5t120 176t162 117.5t199 43q86 0 151 -27.5t105.5 -77.5t61 -118.5t20.5 -150.5q0 -41 -5 -86.5t-15 -92.5q-25 -115 -75 -216t-120.5 -175.5t-162 -117.5t-199.5 -43q-86 0 -149.5 27.5t-105.5 76.5t-61.5 117.5t-19.5 150.5z M319 369q0 -129 55.5 -196t160.5 -67q133 0 234 109.5t146 316.5q18 92 19 164q0 129 -55.5 195.5t-159.5 66.5q-133 0 -234.5 -109.5t-146.5 -316.5q-18 -92 -19 -163zM637 1188l245 291h224l-332 -291h-137z" />
<glyph unicode="&#xf4;" d="M170 352q0 90 20 180q25 115 74 216.5t120 176t162 117.5t199 43q86 0 151 -27.5t105.5 -77.5t61 -118.5t20.5 -150.5q0 -41 -5 -86.5t-15 -92.5q-25 -115 -75 -216t-120.5 -175.5t-162 -117.5t-199.5 -43q-86 0 -149.5 27.5t-105.5 76.5t-61.5 117.5t-19.5 150.5z M319 369q0 -129 55.5 -196t160.5 -67q133 0 234 109.5t146 316.5q18 92 19 164q0 129 -55.5 195.5t-159.5 66.5q-133 0 -234.5 -109.5t-146.5 -316.5q-18 -92 -19 -163zM467 1188l264 291h192l142 -291h-164l-96 192l-174 -192h-164z" />
<glyph unicode="&#xf5;" d="M170 352q0 90 20 180q25 115 74 216.5t120 176t162 117.5t199 43q86 0 151 -27.5t105.5 -77.5t61 -118.5t20.5 -150.5q0 -41 -5 -86.5t-15 -92.5q-25 -115 -75 -216t-120.5 -175.5t-162 -117.5t-199.5 -43q-86 0 -149.5 27.5t-105.5 76.5t-61.5 117.5t-19.5 150.5z M319 369q0 -129 55.5 -196t160.5 -67q133 0 234 109.5t146 316.5q18 92 19 164q0 129 -55.5 195.5t-159.5 66.5q-133 0 -234.5 -109.5t-146.5 -316.5q-18 -92 -19 -163zM426 1206q29 92 97 158t171 66q41 0 75.5 -11.5t65.5 -25.5q33 -16 62.5 -27.5t62.5 -11.5 q39 0 68.5 24.5t46.5 65.5h102q-12 -37 -36.5 -76t-57.5 -70.5t-72 -52t-80 -20.5t-78.5 12t-72.5 27q-37 16 -73 27.5t-73 11.5q-33 0 -64.5 -31t-41.5 -66h-102z" />
<glyph unicode="&#xf6;" d="M170 352q0 90 20 180q25 115 74 216.5t120 176t162 117.5t199 43q86 0 151 -27.5t105.5 -77.5t61 -118.5t20.5 -150.5q0 -41 -5 -86.5t-15 -92.5q-25 -115 -75 -216t-120.5 -175.5t-162 -117.5t-199.5 -43q-86 0 -149.5 27.5t-105.5 76.5t-61.5 117.5t-19.5 150.5z M319 369q0 -129 55.5 -196t160.5 -67q133 0 234 109.5t146 316.5q18 92 19 164q0 129 -55.5 195.5t-159.5 66.5q-133 0 -234.5 -109.5t-146.5 -316.5q-18 -92 -19 -163zM520 1208l43 193h180l-43 -193h-180zM843 1208l43 193h181l-43 -193h-181z" />
<glyph unicode="&#xf7;" horiz-adv-x="1228" d="M182 469l27 127h1065l-27 -127h-1065zM506 78q0 8 4 28q10 53 55 90t99 37q47 0 74.5 -29.5t27.5 -72.5q0 -16 -2 -25q-12 -53 -57 -89.5t-99 -36.5q-45 0 -73.5 28.5t-28.5 69.5zM690 930q0 8 4 28q10 53 55.5 90t98.5 37q47 0 74.5 -29.5t27.5 -72.5q0 -16 -2 -25 q-12 -53 -57 -90t-98 -37q-45 0 -74 29t-29 70z" />
<glyph unicode="&#xf8;" d="M-2 -168l229 289q-57 94 -57 233q0 88 20 178q25 115 74 216.5t120 176t162 117.5t199 43q129 0 209 -63l170 211h133l-231 -287q57 -94 57 -235q0 -41 -5 -86t-15 -93q-25 -115 -75 -216t-120.5 -175.5t-162 -117.5t-199.5 -43q-133 0 -209 63l-170 -211h-129zM317 369 q0 -35 4.5 -62.5t12.5 -52.5l526 653q-51 51 -141 51q-133 0 -234.5 -109.5t-146.5 -316.5q-20 -88 -21 -163zM389 158q51 -51 146 -52q133 0 234 110t146 316q18 88 19 160q0 66 -16 119z" />
<glyph unicode="&#xf9;" horiz-adv-x="1138" d="M233 201q0 20 3.5 42.5t7.5 47.5l168 774h147l-166 -770q-8 -35 -8 -68q0 -66 38 -93.5t103 -27.5q41 0 88.5 15.5t92.5 39t87 52.5t72 55l172 797h148l-230 -1065h-147l31 143h-4q-78 -72 -169.5 -117.5t-183.5 -45.5q-51 0 -96 12t-79 38.5t-54.5 68.5t-20.5 102z M617 1479h223l119 -291h-137z" />
<glyph unicode="&#xfa;" horiz-adv-x="1138" d="M233 201q0 20 3.5 42.5t7.5 47.5l168 774h147l-166 -770q-8 -35 -8 -68q0 -66 38 -93.5t103 -27.5q41 0 88.5 15.5t92.5 39t87 52.5t72 55l172 797h148l-230 -1065h-147l31 143h-4q-78 -72 -169.5 -117.5t-183.5 -45.5q-51 0 -96 12t-79 38.5t-54.5 68.5t-20.5 102z M693 1188l245 291h224l-332 -291h-137z" />
<glyph unicode="&#xfb;" horiz-adv-x="1138" d="M233 201q0 20 3.5 42.5t7.5 47.5l168 774h147l-166 -770q-8 -35 -8 -68q0 -66 38 -93.5t103 -27.5q41 0 88.5 15.5t92.5 39t87 52.5t72 55l172 797h148l-230 -1065h-147l31 143h-4q-78 -72 -169.5 -117.5t-183.5 -45.5q-51 0 -96 12t-79 38.5t-54.5 68.5t-20.5 102z M527 1188l264 291h192l142 -291h-164l-96 192l-174 -192h-164z" />
<glyph unicode="&#xfc;" horiz-adv-x="1138" d="M233 201q0 20 3.5 42.5t7.5 47.5l168 774h147l-166 -770q-8 -35 -8 -68q0 -66 38 -93.5t103 -27.5q41 0 88.5 15.5t92.5 39t87 52.5t72 55l172 797h148l-230 -1065h-147l31 143h-4q-78 -72 -169.5 -117.5t-183.5 -45.5q-51 0 -96 12t-79 38.5t-54.5 68.5t-20.5 102z M578 1208l43 193h180l-43 -193h-180zM901 1208l43 193h181l-43 -193h-181z" />
<glyph unicode="&#xfd;" horiz-adv-x="909" d="M-45 -381l27 121q14 -2 32.5 -4t42.5 -2q33 0 76 7t87 32.5t89 76t82 138.5l-137 1077h156l110 -813h4l426 813h156l-582 -1081l-43 -78q-49 -90 -102 -147.5t-106.5 -91.5t-108.5 -47t-107 -13q-37 0 -58.5 4t-43.5 8zM578 1188l245 291h224l-332 -291h-137z" />
<glyph unicode="&#xfe;" horiz-adv-x="1138" d="M94 -393l406 1872h147l-117 -539h5q27 31 63.5 56.5t78.5 46t84 31.5t81 11q59 0 119.5 -18t109.5 -61t80 -114t31 -175q0 -76 -23 -185q-35 -156 -99.5 -261t-141 -169.5t-158.5 -93t-150 -28.5q-76 0 -139 33.5t-115 84.5l-8 4l-106 -495h-148zM381 254 q47 -66 109.5 -107t127.5 -41q63 0 124 23t112 74t92 134t68 204q18 86 18 153q0 129 -59.5 196.5t-169.5 67.5q-72 0 -138.5 -32.5t-160.5 -110.5z" />
<glyph unicode="&#xff;" horiz-adv-x="909" d="M-45 -381l27 121q14 -2 32.5 -4t42.5 -2q33 0 76 7t87 32.5t89 76t82 138.5l-137 1077h156l110 -813h4l426 813h156l-582 -1081l-43 -78q-49 -90 -102 -147.5t-106.5 -91.5t-108.5 -47t-107 -13q-37 0 -58.5 4t-43.5 8zM463 1208l43 193h180l-43 -193h-180zM786 1208 l43 193h181l-43 -193h-181z" />
<glyph unicode="&#x152;" horiz-adv-x="2048" d="M203 479q0 121 30 260q35 160 100.5 299.5t164 241.5t231.5 160.5t303 58.5q98 0 178 -10t158 -10h883l-31 -140h-723l-106 -495h514l-31 -139h-514l-123 -566h764l-29 -139h-766h-157q-78 0 -163 -10t-184 -10q-133 0 -228 36.5t-155.5 102t-88 158t-27.5 202.5z M367 494q0 -186 89 -280.5t273 -94.5q82 0 148.5 13t116.5 44t83 82t49 127l154 709q4 23 7 42t3 38q0 104 -75.5 145t-217.5 41q-238 0 -386 -158t-214 -463q-31 -139 -30 -245z" />
<glyph unicode="&#x153;" horiz-adv-x="1593" d="M139 346q0 43 6.5 89t16.5 97q27 129 80 231.5t122.5 174.5t153.5 109.5t174 37.5q109 0 185.5 -44t117.5 -146q78 111 177.5 150.5t203.5 39.5q63 0 118.5 -18t96.5 -58t64.5 -101.5t23.5 -145.5q0 -72 -18 -160l-21 -98h-655q-10 -45 -15 -86t-5 -78q0 -109 49 -171.5 t164 -62.5q96 0 178 48.5t135 132.5l102 -60q-31 -45 -71.5 -89t-96 -79.5t-124 -57t-152.5 -21.5q-127 0 -204 45t-105 149q-86 -104 -182.5 -149t-204.5 -45q-147 0 -230.5 96t-83.5 270zM287 352q0 -119 49 -182.5t145 -63.5q135 0 226.5 111t136.5 315q10 53 16 100.5 t6 88.5q0 117 -48 177t-152 60q-129 0 -221.5 -110.5t-135.5 -315.5q-10 -51 -16 -95t-6 -85zM1016 631h504q12 57 12 110q0 100 -49 158.5t-146 58.5q-133 0 -209.5 -90t-111.5 -237z" />
<glyph unicode="&#x178;" horiz-adv-x="1138" d="M352 1479h180l209 -678l504 678h180l-641 -856l-133 -623h-164l134 623zM658 1577l43 193h180l-43 -193h-180zM981 1577l43 193h181l-43 -193h-181z" />
<glyph unicode="&#x2c6;" horiz-adv-x="569" d="M242 1188l264 291h192l142 -291h-164l-96 192l-174 -192h-164z" />
<glyph unicode="&#x2dc;" horiz-adv-x="569" d="M195 1206q29 92 97 158t171 66q41 0 75.5 -11.5t65.5 -25.5q33 -16 62.5 -27.5t62.5 -11.5q39 0 68.5 24.5t46.5 65.5h102q-12 -37 -36.5 -76t-57.5 -70.5t-72 -52t-80 -20.5t-78.5 12t-72.5 27q-37 16 -73 27.5t-73 11.5q-33 0 -64.5 -31t-41.5 -66h-102z" />
<glyph unicode="&#x2000;" horiz-adv-x="983" />
<glyph unicode="&#x2001;" horiz-adv-x="1966" />
<glyph unicode="&#x2002;" horiz-adv-x="983" />
<glyph unicode="&#x2003;" horiz-adv-x="1966" />
<glyph unicode="&#x2004;" horiz-adv-x="655" />
<glyph unicode="&#x2005;" horiz-adv-x="491" />
<glyph unicode="&#x2006;" horiz-adv-x="327" />
<glyph unicode="&#x2007;" horiz-adv-x="327" />
<glyph unicode="&#x2008;" horiz-adv-x="245" />
<glyph unicode="&#x2009;" horiz-adv-x="393" />
<glyph unicode="&#x200a;" horiz-adv-x="109" />
<glyph unicode="&#x2010;" horiz-adv-x="681" d="M182 469l27 127h516l-27 -127h-516z" />
<glyph unicode="&#x2011;" horiz-adv-x="681" d="M182 469l27 127h516l-27 -127h-516z" />
<glyph unicode="&#x2012;" horiz-adv-x="681" d="M182 469l27 127h516l-27 -127h-516z" />
<glyph unicode="&#x2013;" d="M102 481l23 103h1024l-23 -103h-1024z" />
<glyph unicode="&#x2014;" horiz-adv-x="2048" d="M102 481l23 103h2048l-23 -103h-2048z" />
<glyph unicode="&#x2018;" horiz-adv-x="569" d="M389 983l49 225l193 291h86l-160 -291h82l-49 -225h-201z" />
<glyph unicode="&#x2019;" horiz-adv-x="569" d="M383 963l160 290h-82l49 226h201l-49 -226l-193 -290h-86z" />
<glyph unicode="&#x201a;" horiz-adv-x="569" d="M113 -291l159 291h-82l48 225h200l-47 -225l-192 -291h-86z" />
<glyph unicode="&#x201c;" d="M422 983l49 225l193 291h86l-160 -291h82l-49 -225h-201zM840 983l49 225l192 291h86l-159 -291h82l-50 -225h-200z" />
<glyph unicode="&#x201d;" d="M387 963l160 290h-82l49 226h201l-49 -226l-193 -290h-86zM805 963l160 290h-82l49 226h201l-50 -226l-192 -290h-86z" />
<glyph unicode="&#x201e;" d="M117 -291l159 291h-81l47 225h200l-47 -225l-192 -291h-86zM535 -291l159 291h-82l47 225h201l-47 -225l-192 -291h-86z" />
<glyph unicode="&#x2022;" d="M293 657q0 43 8 82q16 76 59 143.5t104.5 118t134.5 79t151 28.5q135 0 217 -82t82 -209q0 -18 -2.5 -37.5t-6.5 -40.5q-16 -78 -60 -144.5t-105.5 -117.5t-136 -79.5t-150.5 -28.5q-66 0 -120 21.5t-93 60t-60.5 92t-21.5 114.5z" />
<glyph unicode="&#x2026;" horiz-adv-x="2048" d="M242 0l47 225h200l-47 -225h-200zM924 0l47 225h200l-47 -225h-200zM1606 0l47 225h200l-47 -225h-200z" />
<glyph unicode="&#x202f;" horiz-adv-x="393" />
<glyph unicode="&#x2039;" horiz-adv-x="681" d="M225 532l336 324h144l-334 -324l194 -323h-139z" />
<glyph unicode="&#x203a;" horiz-adv-x="681" d="M207 209l334 323l-195 324h143l197 -324l-340 -323h-139z" />
<glyph unicode="&#x205f;" horiz-adv-x="491" />
<glyph unicode="&#x20ac;" horiz-adv-x="1251" d="M158 492l71 126h127l39 181h-170l70 127h127q25 115 82 219t140 183t186.5 125t224.5 46q41 0 92 -6t103.5 -27.5t101.5 -63.5t84 -116l-93 -168q-10 27 -29.5 71t-56 84t-92 69.5t-137.5 29.5q-98 0 -176 -42t-134 -107.5t-92 -144.5t-55 -152h664l-70 -127h-616 l-39 -181h555l-72 -126h-512q-8 -39 -8 -84q0 -133 78 -217.5t209 -84.5q76 0 137 18.5t110.5 47.5t88.5 63.5t71 67.5l-37 -170q-78 -72 -176 -112.5t-221 -40.5q-102 0 -179 31.5t-129 88t-77.5 133t-25.5 166.5q0 45 6 93h-170z" />
<glyph unicode="&#x2122;" horiz-adv-x="2027" d="M406 1368l24 111h660l-25 -111h-262l-158 -733h-139l158 733h-258zM1030 635l182 844h215l115 -639l385 639h215l-182 -844h-139l151 704h-4l-428 -704h-90l-125 704h-4l-152 -704h-139z" />
<glyph unicode="&#x25fc;" horiz-adv-x="1064" d="M0 0v1065h1065v-1065h-1065z" />
</font>
</defs>
</svg>
